<svg width="100" height="100" viewBox="0 0 100 100" fill="none" xmlns="http://www.w3.org/2000/svg">
<g filter="url(#filter0_i_38_1067)">
<path d="M24.2052 68.486C29.5574 68.0178 33.5167 63.2993 33.0484 57.947C32.5801 52.5948 27.8617 48.6355 22.5094 49.1038C17.1572 49.5721 13.1979 54.2905 13.6662 59.6428C14.1345 64.995 18.8529 68.9543 24.2052 68.486Z" fill="url(#paint0_radial_38_1067)"/>
</g>
<g filter="url(#filter1_f_38_1067)">
<path d="M23.8626 64.5705C27.052 64.2915 29.4112 61.4798 29.1322 58.2905C28.8532 55.1011 26.0415 52.7419 22.8521 53.0209C19.6628 53.2999 17.3035 56.1116 17.5826 59.3009C17.8616 62.4903 20.6733 64.8496 23.8626 64.5705Z" fill="url(#paint1_linear_38_1067)"/>
</g>
<g filter="url(#filter2_i_38_1067)">
<path d="M79.4349 63.654C84.7871 63.1857 88.7464 58.4673 88.2781 53.115C87.8099 47.7628 83.0914 43.8035 77.7392 44.2718C72.3869 44.74 68.4277 49.4585 68.8959 54.8107C69.3642 60.163 74.0826 64.1222 79.4349 63.654Z" fill="url(#paint2_linear_38_1067)"/>
<path d="M79.4349 63.654C84.7871 63.1857 88.7464 58.4673 88.2781 53.115C87.8099 47.7628 83.0914 43.8035 77.7392 44.2718C72.3869 44.74 68.4277 49.4585 68.8959 54.8107C69.3642 60.163 74.0826 64.1222 79.4349 63.654Z" fill="url(#paint3_radial_38_1067)"/>
</g>
<g filter="url(#filter3_f_38_1067)">
<path d="M79.0923 59.7385C82.2817 59.4595 84.641 56.6478 84.3619 53.4584C84.0829 50.2691 81.2712 47.9098 78.0819 48.1889C74.8925 48.4679 72.5333 51.2796 72.8123 54.4689C73.0913 57.6582 75.903 60.0175 79.0923 59.7385Z" fill="#E4AF9A"/>
<path d="M79.0923 59.7385C82.2817 59.4595 84.641 56.6478 84.3619 53.4584C84.0829 50.2691 81.2712 47.9098 78.0819 48.1889C74.8925 48.4679 72.5333 51.2796 72.8123 54.4689C73.0913 57.6582 75.903 60.0175 79.0923 59.7385Z" fill="url(#paint4_radial_38_1067)"/>
<path d="M79.0923 59.7385C82.2817 59.4595 84.641 56.6478 84.3619 53.4584C84.0829 50.2691 81.2712 47.9098 78.0819 48.1889C74.8925 48.4679 72.5333 51.2796 72.8123 54.4689C73.0913 57.6582 75.903 60.0175 79.0923 59.7385Z" fill="url(#paint5_radial_38_1067)"/>
</g>
<g filter="url(#filter4_i_38_1067)">
<path d="M19.9341 47.0956C19.7987 45.5484 20.2587 43.6354 21.4228 42.5987L22.2753 41.5862C23.7237 40.2141 24.1837 38.3011 24.0214 36.4457L23.5875 31.4865C23.4522 29.9393 24.2808 28.6183 25.8101 28.1708C29.4647 26.9163 37.1152 24.6879 48.3255 23.7071C59.5358 22.7264 67.4571 23.5924 71.274 24.1933C72.5465 24.3956 73.9001 25.5257 74.0355 27.0729L74.4688 32.0259C74.6314 33.8844 75.7279 35.6612 77.0816 36.7913C80.1772 38.5783 80.0947 39.7148 80.0627 42.1456C80.0221 45.2673 80.1714 50.5588 80.1714 50.5588L80.2772 50.5495L80.7437 73.6656C80.7086 84.0205 73.2596 91.8872 63.6307 92.7296L44.9926 94.3602C35.0524 95.2299 26.6619 88.749 24.8291 78.5574C23.097 68.081 21.82 57.5366 19.9338 47.0925" fill="url(#paint6_linear_38_1067)"/>
<path d="M19.9341 47.0956C19.7987 45.5484 20.2587 43.6354 21.4228 42.5987L22.2753 41.5862C23.7237 40.2141 24.1837 38.3011 24.0214 36.4457L23.5875 31.4865C23.4522 29.9393 24.2808 28.6183 25.8101 28.1708C29.4647 26.9163 37.1152 24.6879 48.3255 23.7071C59.5358 22.7264 67.4571 23.5924 71.274 24.1933C72.5465 24.3956 73.9001 25.5257 74.0355 27.0729L74.4688 32.0259C74.6314 33.8844 75.7279 35.6612 77.0816 36.7913C80.1772 38.5783 80.0947 39.7148 80.0627 42.1456C80.0221 45.2673 80.1714 50.5588 80.1714 50.5588L80.2772 50.5495L80.7437 73.6656C80.7086 84.0205 73.2596 91.8872 63.6307 92.7296L44.9926 94.3602C35.0524 95.2299 26.6619 88.749 24.8291 78.5574C23.097 68.081 21.82 57.5366 19.9338 47.0925" fill="url(#paint7_radial_38_1067)"/>
<path d="M19.9341 47.0956C19.7987 45.5484 20.2587 43.6354 21.4228 42.5987L22.2753 41.5862C23.7237 40.2141 24.1837 38.3011 24.0214 36.4457L23.5875 31.4865C23.4522 29.9393 24.2808 28.6183 25.8101 28.1708C29.4647 26.9163 37.1152 24.6879 48.3255 23.7071C59.5358 22.7264 67.4571 23.5924 71.274 24.1933C72.5465 24.3956 73.9001 25.5257 74.0355 27.0729L74.4688 32.0259C74.6314 33.8844 75.7279 35.6612 77.0816 36.7913C80.1772 38.5783 80.0947 39.7148 80.0627 42.1456C80.0221 45.2673 80.1714 50.5588 80.1714 50.5588L80.2772 50.5495L80.7437 73.6656C80.7086 84.0205 73.2596 91.8872 63.6307 92.7296L44.9926 94.3602C35.0524 95.2299 26.6619 88.749 24.8291 78.5574C23.097 68.081 21.82 57.5366 19.9338 47.0925" fill="url(#paint8_linear_38_1067)"/>
<path d="M19.9341 47.0956C19.7987 45.5484 20.2587 43.6354 21.4228 42.5987L22.2753 41.5862C23.7237 40.2141 24.1837 38.3011 24.0214 36.4457L23.5875 31.4865C23.4522 29.9393 24.2808 28.6183 25.8101 28.1708C29.4647 26.9163 37.1152 24.6879 48.3255 23.7071C59.5358 22.7264 67.4571 23.5924 71.274 24.1933C72.5465 24.3956 73.9001 25.5257 74.0355 27.0729L74.4688 32.0259C74.6314 33.8844 75.7279 35.6612 77.0816 36.7913C80.1772 38.5783 80.0947 39.7148 80.0627 42.1456C80.0221 45.2673 80.1714 50.5588 80.1714 50.5588L80.2772 50.5495L80.7437 73.6656C80.7086 84.0205 73.2596 91.8872 63.6307 92.7296L44.9926 94.3602C35.0524 95.2299 26.6619 88.749 24.8291 78.5574C23.097 68.081 21.82 57.5366 19.9338 47.0925" fill="url(#paint9_radial_38_1067)"/>
<path d="M19.9341 47.0956C19.7987 45.5484 20.2587 43.6354 21.4228 42.5987L22.2753 41.5862C23.7237 40.2141 24.1837 38.3011 24.0214 36.4457L23.5875 31.4865C23.4522 29.9393 24.2808 28.6183 25.8101 28.1708C29.4647 26.9163 37.1152 24.6879 48.3255 23.7071C59.5358 22.7264 67.4571 23.5924 71.274 24.1933C72.5465 24.3956 73.9001 25.5257 74.0355 27.0729L74.4688 32.0259C74.6314 33.8844 75.7279 35.6612 77.0816 36.7913C80.1772 38.5783 80.0947 39.7148 80.0627 42.1456C80.0221 45.2673 80.1714 50.5588 80.1714 50.5588L80.2772 50.5495L80.7437 73.6656C80.7086 84.0205 73.2596 91.8872 63.6307 92.7296L44.9926 94.3602C35.0524 95.2299 26.6619 88.749 24.8291 78.5574C23.097 68.081 21.82 57.5366 19.9338 47.0925" fill="url(#paint10_radial_38_1067)"/>
</g>
<g filter="url(#filter5_f_38_1067)">
<path d="M71.076 21.7167L53.7281 29.2385C52.3354 29.8438 51.2183 30.9464 50.5951 32.3312C49.9718 33.7159 49.8872 35.2832 50.3577 36.727C50.8282 38.1708 51.8201 39.3874 53.1395 40.139C54.459 40.8907 56.0112 41.1234 57.4931 40.7919L75.0484 36.8594L71.076 21.7167Z" fill="url(#paint11_linear_38_1067)"/>
</g>
<g filter="url(#filter6_i_38_1067)">
<path d="M75.6085 16.3328L78.2071 17.3508C82.755 19.1362 85.6791 23.8744 85.2054 29.2173L83.3253 47.1682C83.1796 49.016 82.0824 50.3511 80.2775 50.5529L80.1716 50.5622C80.1716 50.5622 80.0226 45.2738 80.0629 42.149C80.095 39.6116 79.5891 38.8842 77.0849 36.7945C75.7313 35.6644 74.6348 33.8876 74.4722 32.029L74.0388 27.0761C73.9035 25.5289 72.5498 24.3988 71.2773 24.1964C67.4605 23.5956 59.5361 22.7298 48.3258 23.7106C37.1155 24.6913 29.4681 26.9195 25.8104 28.1743C24.2811 28.6218 23.4555 29.9425 23.5909 31.4897L24.0242 36.4427C24.1868 38.3012 23.7268 40.2142 22.2787 41.5894L21.4259 42.5988C20.2618 43.6355 19.8018 45.5485 19.9372 47.0957C20.5464 50.4742 21.2913 55.403 21.2913 55.403C21.1938 55.4115 21.0981 55.4168 21.0041 55.4187C20.1581 55.4523 19.3262 55.1937 18.6483 54.6863C17.9704 54.179 17.4878 53.4538 17.2815 52.6326L12.3131 35.284C11.2571 30.3855 13.314 25.2115 17.4828 22.6635L19.8649 21.2066C21.3403 20.1427 22.7884 18.7675 24.2397 17.392L29.3285 11.018C32.4822 7.62397 37.3851 6.26021 41.9362 8.04535C45.1304 8.7007 48.5549 8.4011 51.5868 7.20103C56.1239 5.24189 61.5277 6.01762 65.5614 9.09653L70.6375 13.3327C72.0181 14.771 73.656 15.5656 75.6051 16.3299" fill="#242324"/>
<path d="M75.6085 16.3328L78.2071 17.3508C82.755 19.1362 85.6791 23.8744 85.2054 29.2173L83.3253 47.1682C83.1796 49.016 82.0824 50.3511 80.2775 50.5529L80.1716 50.5622C80.1716 50.5622 80.0226 45.2738 80.0629 42.149C80.095 39.6116 79.5891 38.8842 77.0849 36.7945C75.7313 35.6644 74.6348 33.8876 74.4722 32.029L74.0388 27.0761C73.9035 25.5289 72.5498 24.3988 71.2773 24.1964C67.4605 23.5956 59.5361 22.7298 48.3258 23.7106C37.1155 24.6913 29.4681 26.9195 25.8104 28.1743C24.2811 28.6218 23.4555 29.9425 23.5909 31.4897L24.0242 36.4427C24.1868 38.3012 23.7268 40.2142 22.2787 41.5894L21.4259 42.5988C20.2618 43.6355 19.8018 45.5485 19.9372 47.0957C20.5464 50.4742 21.2913 55.403 21.2913 55.403C21.1938 55.4115 21.0981 55.4168 21.0041 55.4187C20.1581 55.4523 19.3262 55.1937 18.6483 54.6863C17.9704 54.179 17.4878 53.4538 17.2815 52.6326L12.3131 35.284C11.2571 30.3855 13.314 25.2115 17.4828 22.6635L19.8649 21.2066C21.3403 20.1427 22.7884 18.7675 24.2397 17.392L29.3285 11.018C32.4822 7.62397 37.3851 6.26021 41.9362 8.04535C45.1304 8.7007 48.5549 8.4011 51.5868 7.20103C56.1239 5.24189 61.5277 6.01762 65.5614 9.09653L70.6375 13.3327C72.0181 14.771 73.656 15.5656 75.6051 16.3299" fill="url(#paint12_radial_38_1067)"/>
<path d="M75.6085 16.3328L78.2071 17.3508C82.755 19.1362 85.6791 23.8744 85.2054 29.2173L83.3253 47.1682C83.1796 49.016 82.0824 50.3511 80.2775 50.5529L80.1716 50.5622C80.1716 50.5622 80.0226 45.2738 80.0629 42.149C80.095 39.6116 79.5891 38.8842 77.0849 36.7945C75.7313 35.6644 74.6348 33.8876 74.4722 32.029L74.0388 27.0761C73.9035 25.5289 72.5498 24.3988 71.2773 24.1964C67.4605 23.5956 59.5361 22.7298 48.3258 23.7106C37.1155 24.6913 29.4681 26.9195 25.8104 28.1743C24.2811 28.6218 23.4555 29.9425 23.5909 31.4897L24.0242 36.4427C24.1868 38.3012 23.7268 40.2142 22.2787 41.5894L21.4259 42.5988C20.2618 43.6355 19.8018 45.5485 19.9372 47.0957C20.5464 50.4742 21.2913 55.403 21.2913 55.403C21.1938 55.4115 21.0981 55.4168 21.0041 55.4187C20.1581 55.4523 19.3262 55.1937 18.6483 54.6863C17.9704 54.179 17.4878 53.4538 17.2815 52.6326L12.3131 35.284C11.2571 30.3855 13.314 25.2115 17.4828 22.6635L19.8649 21.2066C21.3403 20.1427 22.7884 18.7675 24.2397 17.392L29.3285 11.018C32.4822 7.62397 37.3851 6.26021 41.9362 8.04535C45.1304 8.7007 48.5549 8.4011 51.5868 7.20103C56.1239 5.24189 61.5277 6.01762 65.5614 9.09653L70.6375 13.3327C72.0181 14.771 73.656 15.5656 75.6051 16.3299" fill="url(#paint13_radial_38_1067)"/>
<path d="M75.6085 16.3328L78.2071 17.3508C82.755 19.1362 85.6791 23.8744 85.2054 29.2173L83.3253 47.1682C83.1796 49.016 82.0824 50.3511 80.2775 50.5529L80.1716 50.5622C80.1716 50.5622 80.0226 45.2738 80.0629 42.149C80.095 39.6116 79.5891 38.8842 77.0849 36.7945C75.7313 35.6644 74.6348 33.8876 74.4722 32.029L74.0388 27.0761C73.9035 25.5289 72.5498 24.3988 71.2773 24.1964C67.4605 23.5956 59.5361 22.7298 48.3258 23.7106C37.1155 24.6913 29.4681 26.9195 25.8104 28.1743C24.2811 28.6218 23.4555 29.9425 23.5909 31.4897L24.0242 36.4427C24.1868 38.3012 23.7268 40.2142 22.2787 41.5894L21.4259 42.5988C20.2618 43.6355 19.8018 45.5485 19.9372 47.0957C20.5464 50.4742 21.2913 55.403 21.2913 55.403C21.1938 55.4115 21.0981 55.4168 21.0041 55.4187C20.1581 55.4523 19.3262 55.1937 18.6483 54.6863C17.9704 54.179 17.4878 53.4538 17.2815 52.6326L12.3131 35.284C11.2571 30.3855 13.314 25.2115 17.4828 22.6635L19.8649 21.2066C21.3403 20.1427 22.7884 18.7675 24.2397 17.392L29.3285 11.018C32.4822 7.62397 37.3851 6.26021 41.9362 8.04535C45.1304 8.7007 48.5549 8.4011 51.5868 7.20103C56.1239 5.24189 61.5277 6.01762 65.5614 9.09653L70.6375 13.3327C72.0181 14.771 73.656 15.5656 75.6051 16.3299" fill="url(#paint14_radial_38_1067)"/>
<path d="M75.6085 16.3328L78.2071 17.3508C82.755 19.1362 85.6791 23.8744 85.2054 29.2173L83.3253 47.1682C83.1796 49.016 82.0824 50.3511 80.2775 50.5529L80.1716 50.5622C80.1716 50.5622 80.0226 45.2738 80.0629 42.149C80.095 39.6116 79.5891 38.8842 77.0849 36.7945C75.7313 35.6644 74.6348 33.8876 74.4722 32.029L74.0388 27.0761C73.9035 25.5289 72.5498 24.3988 71.2773 24.1964C67.4605 23.5956 59.5361 22.7298 48.3258 23.7106C37.1155 24.6913 29.4681 26.9195 25.8104 28.1743C24.2811 28.6218 23.4555 29.9425 23.5909 31.4897L24.0242 36.4427C24.1868 38.3012 23.7268 40.2142 22.2787 41.5894L21.4259 42.5988C20.2618 43.6355 19.8018 45.5485 19.9372 47.0957C20.5464 50.4742 21.2913 55.403 21.2913 55.403C21.1938 55.4115 21.0981 55.4168 21.0041 55.4187C20.1581 55.4523 19.3262 55.1937 18.6483 54.6863C17.9704 54.179 17.4878 53.4538 17.2815 52.6326L12.3131 35.284C11.2571 30.3855 13.314 25.2115 17.4828 22.6635L19.8649 21.2066C21.3403 20.1427 22.7884 18.7675 24.2397 17.392L29.3285 11.018C32.4822 7.62397 37.3851 6.26021 41.9362 8.04535C45.1304 8.7007 48.5549 8.4011 51.5868 7.20103C56.1239 5.24189 61.5277 6.01762 65.5614 9.09653L70.6375 13.3327C72.0181 14.771 73.656 15.5656 75.6051 16.3299" fill="url(#paint15_radial_38_1067)"/>
</g>
<g filter="url(#filter7_f_38_1067)">
<path d="M49.262 55.8176L45.362 66.0998C44.9481 68.1813 46.5453 70.0868 48.5501 69.9114L52.8307 69.5369C54.8386 69.3612 56.0748 67.1764 55.3084 65.2296L51.553 55.614C50.7423 53.4828 49.7212 53.5722 49.2617 55.8145" fill="#D89992"/>
</g>
<g filter="url(#filter8_f_38_1067)">
<path d="M48.5593 54.9217L46.3376 65.0601C46.232 65.544 46.2423 66.0459 46.3677 66.525C46.4931 67.0041 46.73 67.4467 47.0591 67.8168C47.3881 68.1868 47.8 68.4738 48.2612 68.6544C48.7223 68.8349 49.2196 68.9038 49.7125 68.8554L54.2763 68.4562C56.4181 68.2688 57.7477 66.0758 56.944 64.1322L52.9986 54.5333C52.1443 52.4059 49.0592 52.6758 48.5593 54.9217Z" fill="#FBC4B1"/>
<path d="M48.5593 54.9217L46.3376 65.0601C46.232 65.544 46.2423 66.0459 46.3677 66.525C46.4931 67.0041 46.73 67.4467 47.0591 67.8168C47.3881 68.1868 47.8 68.4738 48.2612 68.6544C48.7223 68.8349 49.2196 68.9038 49.7125 68.8554L54.2763 68.4562C56.4181 68.2688 57.7477 66.0758 56.944 64.1322L52.9986 54.5333C52.1443 52.4059 49.0592 52.6758 48.5593 54.9217Z" fill="url(#paint16_linear_38_1067)"/>
<path d="M48.5593 54.9217L46.3376 65.0601C46.232 65.544 46.2423 66.0459 46.3677 66.525C46.4931 67.0041 46.73 67.4467 47.0591 67.8168C47.3881 68.1868 47.8 68.4738 48.2612 68.6544C48.7223 68.8349 49.2196 68.9038 49.7125 68.8554L54.2763 68.4562C56.4181 68.2688 57.7477 66.0758 56.944 64.1322L52.9986 54.5333C52.1443 52.4059 49.0592 52.6758 48.5593 54.9217Z" fill="url(#paint17_linear_38_1067)"/>
<path d="M48.5593 54.9217L46.3376 65.0601C46.232 65.544 46.2423 66.0459 46.3677 66.525C46.4931 67.0041 46.73 67.4467 47.0591 67.8168C47.3881 68.1868 47.8 68.4738 48.2612 68.6544C48.7223 68.8349 49.2196 68.9038 49.7125 68.8554L54.2763 68.4562C56.4181 68.2688 57.7477 66.0758 56.944 64.1322L52.9986 54.5333C52.1443 52.4059 49.0592 52.6758 48.5593 54.9217Z" fill="url(#paint18_linear_38_1067)"/>
<path d="M48.5593 54.9217L46.3376 65.0601C46.232 65.544 46.2423 66.0459 46.3677 66.525C46.4931 67.0041 46.73 67.4467 47.0591 67.8168C47.3881 68.1868 47.8 68.4738 48.2612 68.6544C48.7223 68.8349 49.2196 68.9038 49.7125 68.8554L54.2763 68.4562C56.4181 68.2688 57.7477 66.0758 56.944 64.1322L52.9986 54.5333C52.1443 52.4059 49.0592 52.6758 48.5593 54.9217Z" fill="url(#paint19_radial_38_1067)"/>
</g>
<path d="M48.5593 54.9217L46.3376 65.0601C46.232 65.544 46.2423 66.0459 46.3677 66.525C46.4931 67.0041 46.73 67.4467 47.0591 67.8168C47.3881 68.1868 47.8 68.4738 48.2612 68.6544C48.7223 68.8349 49.2196 68.9038 49.7125 68.8554L54.2763 68.4562C56.4181 68.2688 57.7477 66.0758 56.944 64.1322L52.9986 54.5333C52.1443 52.4059 49.0592 52.6758 48.5593 54.9217Z" fill="url(#paint20_linear_38_1067)"/>
<path d="M44.3623 73.2097C44.1506 73.122 43.916 73.1062 43.6945 73.1647C43.4729 73.2231 43.2767 73.3527 43.1359 73.5334C42.9905 73.7061 42.9112 73.9248 42.912 74.1505C42.9128 74.3761 42.9936 74.5942 43.1402 74.7659C44.2947 76.2123 45.79 77.3497 47.4921 78.0762C49.1943 78.8027 51.0501 79.0955 52.8932 78.9286C54.7382 78.7731 56.5157 78.1621 58.0664 77.1504C59.617 76.1388 60.8924 74.7581 61.7781 73.1321C61.8914 72.9355 61.9322 72.7052 61.8931 72.4816C61.854 72.258 61.7377 72.0552 61.5644 71.9086C61.3921 71.759 61.1762 71.6689 60.9487 71.6515C60.7212 71.6341 60.4942 71.6904 60.3012 71.8121C57.9473 73.2931 55.2693 74.1808 52.4969 74.399C49.5768 74.6545 46.7711 74.2098 44.3623 73.2097Z" fill="#88024E"/>
<path d="M44.3654 73.2094L44.3623 73.2097M44.3623 73.2097C44.1506 73.122 43.916 73.1062 43.6945 73.1647C43.4729 73.2231 43.2767 73.3527 43.1359 73.5334C42.9905 73.7061 42.9112 73.9248 42.912 74.1505C42.9128 74.3761 42.9936 74.5942 43.1402 74.7659C44.2947 76.2123 45.79 77.3497 47.4921 78.0762C49.1943 78.8027 51.0501 79.0955 52.8932 78.9286C54.7382 78.7731 56.5157 78.1621 58.0664 77.1504C59.617 76.1388 60.8924 74.7581 61.7781 73.1321C61.8914 72.9355 61.9322 72.7052 61.8931 72.4816C61.854 72.258 61.7377 72.0552 61.5644 71.9086C61.3921 71.759 61.1762 71.6689 60.9487 71.6515C60.7212 71.6341 60.4942 71.6904 60.3012 71.8121C57.9473 73.2931 55.2693 74.1808 52.4969 74.399C49.5768 74.6545 46.7711 74.2098 44.3623 73.2097Z" stroke="url(#paint21_linear_38_1067)" stroke-width="0.3125"/>
<g filter="url(#filter9_i_38_1067)">
<path d="M71.1351 38.7054L71.1252 38.7L71.1151 38.6915L71.0883 38.6719L71.012 38.6252C70.7059 38.4254 70.3884 38.2437 70.061 38.081C69.244 37.6694 68.3924 37.3303 67.5161 37.0677C64.6674 36.2313 61.6463 36.176 58.7689 36.9076C58.3726 37.0061 57.9995 37.1817 57.6711 37.4244C57.3426 37.6671 57.0652 37.9721 56.8546 38.3221C56.644 38.672 56.5044 39.0599 56.4438 39.4638C56.3831 39.8677 56.4026 40.2795 56.5012 40.6758C56.5997 41.0722 56.7753 41.4452 57.018 41.7736C57.2607 42.1021 57.5657 42.3795 57.9156 42.5901C58.2655 42.8007 58.6535 42.9403 59.0574 43.0009C59.4612 43.0616 59.8731 43.0421 60.2694 42.9435C62.0679 42.4788 63.9585 42.5085 65.7415 43.0294C66.3753 43.2226 66.9869 43.4825 67.566 43.8046L67.6154 43.8317C68.2954 44.2866 69.1273 44.4551 69.9308 44.3008C70.7342 44.1465 71.4445 43.6817 71.9076 43.0073C72.3707 42.3328 72.5493 41.503 72.4047 40.6977C72.2601 39.8924 71.8039 39.1766 71.1351 38.7054Z" fill="#1E1E1E"/>
</g>
<g filter="url(#filter10_i_38_1067)">
<path d="M27.6358 42.5141L27.6353 42.5078L27.6415 42.5073L27.6528 42.4938L27.6758 42.4698L27.7397 42.4109L27.9344 42.2339C28.0954 42.0901 28.3121 41.9143 28.5846 41.7064C29.1321 41.2946 29.9145 40.7713 30.9152 40.2697C33.5753 38.9513 36.541 38.3723 39.5017 38.5931C39.9091 38.6213 40.307 38.7295 40.6726 38.9115C41.0382 39.0934 41.3644 39.3456 41.6325 39.6537C41.9007 39.9617 42.1055 40.3195 42.2354 40.7067C42.3652 41.0939 42.4175 41.5029 42.3893 41.9103C42.3611 42.3177 42.2529 42.7156 42.071 43.0812C41.889 43.4468 41.6368 43.773 41.3288 44.0411C41.0207 44.3093 40.6629 44.5141 40.2757 44.6439C39.8885 44.7738 39.4795 44.8261 39.0721 44.7979C37.2203 44.6525 35.3635 45.0101 33.6981 45.8327C33.1074 46.133 32.5503 46.4951 32.0359 46.9129L31.992 46.9482C31.4008 47.5101 30.6126 47.8173 29.7971 47.8035C28.9816 47.7898 28.2042 47.4561 27.6324 46.8746C27.0606 46.293 26.7402 45.51 26.7402 44.6944C26.7403 43.8788 27.0639 43.0956 27.6358 42.5141Z" fill="#1E1E1E"/>
</g>
<path d="M64.06 46.8654C67.8486 46.5339 71.2808 48.8687 72.4582 52.323C72.5389 52.5533 72.5656 52.7992 72.5363 53.0415C72.5069 53.2838 72.4223 53.5162 72.2889 53.7206C72.1556 53.9251 71.977 54.0962 71.7671 54.2207C71.5571 54.3452 71.3214 54.4198 71.078 54.4388L58.1275 55.5718C57.9314 55.589 57.7339 55.5628 57.5491 55.4952C57.3642 55.4276 57.1965 55.3203 57.0577 55.1807C56.9189 55.0411 56.8124 54.8728 56.7459 54.6875C56.6793 54.5023 56.6543 54.3047 56.6725 54.1087C56.874 52.233 57.7203 50.4853 59.0671 49.1643C60.4139 47.8433 62.1807 47.0305 64.06 46.8654Z" fill="white"/>
<path d="M62.9963 48.5485C63.7927 48.4798 64.5942 48.5957 65.3386 48.887C66.0829 49.1784 66.7501 49.6375 67.2882 50.2285C67.8264 50.8196 68.221 51.5268 68.4414 52.2951C68.6619 53.0635 68.7023 53.8723 68.5594 54.6588L58.5538 55.5342C58.3922 55.0996 58.2882 54.6457 58.2444 54.1841C58.1289 52.8076 58.564 51.4414 59.4541 50.385C60.3443 49.3287 61.6201 48.6681 62.9963 48.5485Z" fill="url(#paint22_radial_38_1067)"/>
<path d="M60.4797 53.9883C60.3353 52.3383 61.5401 50.906 63.1869 50.7619C64.8368 50.6176 66.2692 51.8223 66.4132 53.4691C66.4585 53.9442 66.3873 54.423 66.2059 54.8644L60.9541 55.3239C60.6793 54.9291 60.5154 54.4679 60.4797 53.9883Z" fill="black"/>
<g filter="url(#filter11_f_38_1067)">
<path d="M62.7093 49.6777C63.1228 50.1372 62.4005 50.809 61.586 51.539C60.7625 52.2729 60.1524 52.7937 59.7415 52.3277C59.328 51.8683 59.6606 50.9012 60.4779 50.1678C61.2986 49.4373 62.2987 49.2149 62.7093 49.6777Z" fill="#C7A7A3"/>
<path d="M62.7093 49.6777C63.1228 50.1372 62.4005 50.809 61.586 51.539C60.7625 52.2729 60.1524 52.7937 59.7415 52.3277C59.328 51.8683 59.6606 50.9012 60.4779 50.1678C61.2986 49.4373 62.2987 49.2149 62.7093 49.6777Z" fill="url(#paint23_radial_38_1067)"/>
</g>
<g filter="url(#filter12_f_38_1067)">
<path d="M68.0036 52.6432C67.7597 51.6422 67.207 50.7434 66.4237 50.0742L65.0618 51.8622L65.8562 53.1259L68.0036 52.6432Z" fill="url(#paint24_linear_38_1067)"/>
</g>
<path d="M36.3035 49.2938C32.5118 49.6255 29.5372 52.5208 28.9775 56.1271C28.938 56.3679 28.9544 56.6147 29.0254 56.8482C29.0964 57.0818 29.22 57.2959 29.3869 57.4741C29.5537 57.6523 29.7593 57.7898 29.9877 57.8759C30.216 57.9621 30.4612 57.9947 30.7041 57.9711L43.6547 56.8381C43.8507 56.8209 44.0407 56.7608 44.211 56.6622C44.3813 56.5635 44.5279 56.4286 44.6403 56.2671C44.7527 56.1055 44.8283 55.9212 44.8617 55.7273C44.8951 55.5333 44.8854 55.3343 44.8334 55.1445C44.3072 53.3335 43.1698 51.7608 41.6145 50.6941C40.0593 49.6273 38.1825 49.1325 36.3035 49.2938Z" fill="white"/>
<path d="M37.6431 50.7666C36.8466 50.8367 36.077 51.0897 35.3941 51.5057C34.7113 51.9217 34.1335 52.4897 33.7059 53.1653C33.2782 53.8409 33.0121 54.6061 32.9283 55.4013C32.8444 56.1965 32.9451 57.0003 33.2225 57.7503L43.2311 56.8746C43.3071 56.4163 43.3395 55.9617 43.2984 55.4917C43.169 54.1176 42.5023 52.8502 41.4432 51.9653C40.3841 51.0803 39.0183 50.6495 37.6431 50.7666Z" fill="url(#paint25_radial_38_1067)"/>
<path d="M41.0632 55.6869C41.0303 55.2969 40.9206 54.9172 40.7404 54.5697C40.5602 54.2222 40.313 53.9137 40.0132 53.6621C39.7133 53.4105 39.3667 53.2207 38.9931 53.1036C38.6196 52.9865 38.2266 52.9444 37.8368 52.9797C37.4467 53.0126 37.067 53.1223 36.7195 53.3025C36.372 53.4827 36.0636 53.7298 35.812 54.0297C35.5604 54.3295 35.3706 54.6762 35.2534 55.0497C35.1363 55.4232 35.0942 55.8162 35.1296 56.2061C35.1729 56.701 35.3292 57.161 35.576 57.5441L40.8278 57.0846C41.0192 56.6449 41.1 56.1651 41.0632 55.6869Z" fill="black"/>
<g filter="url(#filter13_f_38_1067)">
<path d="M42.7752 54.9252C42.6286 53.2504 41.1704 52.2518 40.7706 51.948L39.2404 53.7131L40.4513 55.7214L42.7752 54.9252Z" fill="url(#paint26_linear_38_1067)"/>
</g>
<g filter="url(#filter14_f_38_1067)">
<path d="M36.8959 54.0821C37.9478 53.4012 38.5207 52.417 38.1756 51.8839C37.8305 51.3507 36.698 51.4704 35.6461 52.1512C34.5943 52.8321 34.0213 53.8163 34.3664 54.3494C34.7115 54.8826 35.844 54.7629 36.8959 54.0821Z" fill="#C7A7A3" fill-opacity="0.9"/>
<path d="M36.8959 54.0821C37.9478 53.4012 38.5207 52.417 38.1756 51.8839C37.8305 51.3507 36.698 51.4704 35.6461 52.1512C34.5943 52.8321 34.0213 53.8163 34.3664 54.3494C34.7115 54.8826 35.844 54.7629 36.8959 54.0821Z" fill="url(#paint27_radial_38_1067)"/>
</g>
<g filter="url(#filter15_f_38_1067)">
<path d="M59.1073 38.9104C61.5658 38.2562 66.4456 37.9547 70.0465 40.281" stroke="url(#paint28_linear_38_1067)" stroke-width="1.5625" stroke-linecap="round"/>
</g>
<g filter="url(#filter16_f_38_1067)">
<path d="M29.0707 44.572C30.8229 42.7279 34.8148 40.5968 40.0265 40.969" stroke="url(#paint29_linear_38_1067)" stroke-width="1.5625" stroke-linecap="round"/>
</g>
<g filter="url(#filter17_f_38_1067)">
<path d="M22.1621 30.7552L22.618 35.9666C22.6499 36.8327 22.4545 38.7947 21.4366 39.7088" stroke="url(#paint30_linear_38_1067)" stroke-width="0.78125" stroke-linecap="round"/>
</g>
<defs>
<filter id="filter0_i_38_1067" x="13.6286" y="49.0662" width="20.0824" height="19.4575" filterUnits="userSpaceOnUse" color-interpolation-filters="sRGB">
<feFlood flood-opacity="0" result="BackgroundImageFix"/>
<feBlend mode="normal" in="SourceGraphic" in2="BackgroundImageFix" result="shape"/>
<feColorMatrix in="SourceAlpha" type="matrix" values="0 0 0 0 0 0 0 0 0 0 0 0 0 0 0 0 0 0 127 0" result="hardAlpha"/>
<feOffset dx="0.625"/>
<feGaussianBlur stdDeviation="0.46875"/>
<feComposite in2="hardAlpha" operator="arithmetic" k2="-1" k3="1"/>
<feColorMatrix type="matrix" values="0 0 0 0 0.917647 0 0 0 0 0.694118 0 0 0 0 0.607843 0 0 0 1 0"/>
<feBlend mode="normal" in2="shape" result="effect1_innerShadow_38_1067"/>
</filter>
<filter id="filter1_f_38_1067" x="15.9977" y="51.436" width="14.7195" height="14.7195" filterUnits="userSpaceOnUse" color-interpolation-filters="sRGB">
<feFlood flood-opacity="0" result="BackgroundImageFix"/>
<feBlend mode="normal" in="SourceGraphic" in2="BackgroundImageFix" result="shape"/>
<feGaussianBlur stdDeviation="0.78125" result="effect1_foregroundBlur_38_1067"/>
</filter>
<filter id="filter2_i_38_1067" x="68.8583" y="43.4529" width="20.2386" height="20.2388" filterUnits="userSpaceOnUse" color-interpolation-filters="sRGB">
<feFlood flood-opacity="0" result="BackgroundImageFix"/>
<feBlend mode="normal" in="SourceGraphic" in2="BackgroundImageFix" result="shape"/>
<feColorMatrix in="SourceAlpha" type="matrix" values="0 0 0 0 0 0 0 0 0 0 0 0 0 0 0 0 0 0 127 0" result="hardAlpha"/>
<feOffset dx="0.78125" dy="-0.78125"/>
<feGaussianBlur stdDeviation="0.78125"/>
<feComposite in2="hardAlpha" operator="arithmetic" k2="-1" k3="1"/>
<feColorMatrix type="matrix" values="0 0 0 0 0.843137 0 0 0 0 0.623529 0 0 0 0 0.580392 0 0 0 1 0"/>
<feBlend mode="normal" in2="shape" result="effect1_innerShadow_38_1067"/>
</filter>
<filter id="filter3_f_38_1067" x="71.2274" y="46.604" width="14.7195" height="14.7195" filterUnits="userSpaceOnUse" color-interpolation-filters="sRGB">
<feFlood flood-opacity="0" result="BackgroundImageFix"/>
<feBlend mode="normal" in="SourceGraphic" in2="BackgroundImageFix" result="shape"/>
<feGaussianBlur stdDeviation="0.78125" result="effect1_foregroundBlur_38_1067"/>
</filter>
<filter id="filter4_i_38_1067" x="19.9111" y="23.2637" width="60.8326" height="71.9558" filterUnits="userSpaceOnUse" color-interpolation-filters="sRGB">
<feFlood flood-opacity="0" result="BackgroundImageFix"/>
<feBlend mode="normal" in="SourceGraphic" in2="BackgroundImageFix" result="shape"/>
<feColorMatrix in="SourceAlpha" type="matrix" values="0 0 0 0 0 0 0 0 0 0 0 0 0 0 0 0 0 0 127 0" result="hardAlpha"/>
<feOffset dy="0.78125"/>
<feGaussianBlur stdDeviation="1.17188"/>
<feComposite in2="hardAlpha" operator="arithmetic" k2="-1" k3="1"/>
<feColorMatrix type="matrix" values="0 0 0 0 0.819608 0 0 0 0 0.615686 0 0 0 0 0.509804 0 0 0 1 0"/>
<feBlend mode="normal" in2="shape" result="effect1_innerShadow_38_1067"/>
</filter>
<filter id="filter5_f_38_1067" x="43.8074" y="15.4668" width="37.4911" height="31.7224" filterUnits="userSpaceOnUse" color-interpolation-filters="sRGB">
<feFlood flood-opacity="0" result="BackgroundImageFix"/>
<feBlend mode="normal" in="SourceGraphic" in2="BackgroundImageFix" result="shape"/>
<feGaussianBlur stdDeviation="3.125" result="effect1_foregroundBlur_38_1067"/>
</filter>
<filter id="filter6_i_38_1067" x="12.0393" y="4.56519" width="73.2163" height="50.8564" filterUnits="userSpaceOnUse" color-interpolation-filters="sRGB">
<feFlood flood-opacity="0" result="BackgroundImageFix"/>
<feBlend mode="normal" in="SourceGraphic" in2="BackgroundImageFix" result="shape"/>
<feColorMatrix in="SourceAlpha" type="matrix" values="0 0 0 0 0 0 0 0 0 0 0 0 0 0 0 0 0 0 127 0" result="hardAlpha"/>
<feOffset dy="-1.5625"/>
<feGaussianBlur stdDeviation="1.17188"/>
<feComposite in2="hardAlpha" operator="arithmetic" k2="-1" k3="1"/>
<feColorMatrix type="matrix" values="0 0 0 0 0.0392157 0 0 0 0 0.00784314 0 0 0 0 0.0196078 0 0 0 1 0"/>
<feBlend mode="normal" in2="shape" result="effect1_innerShadow_38_1067"/>
</filter>
<filter id="filter7_f_38_1067" x="42.9525" y="51.7288" width="14.9291" height="20.5376" filterUnits="userSpaceOnUse" color-interpolation-filters="sRGB">
<feFlood flood-opacity="0" result="BackgroundImageFix"/>
<feBlend mode="normal" in="SourceGraphic" in2="BackgroundImageFix" result="shape"/>
<feGaussianBlur stdDeviation="1.17188" result="effect1_foregroundBlur_38_1067"/>
</filter>
<filter id="filter8_f_38_1067" x="45.4841" y="52.2971" width="12.4779" height="17.3545" filterUnits="userSpaceOnUse" color-interpolation-filters="sRGB">
<feFlood flood-opacity="0" result="BackgroundImageFix"/>
<feBlend mode="normal" in="SourceGraphic" in2="BackgroundImageFix" result="shape"/>
<feGaussianBlur stdDeviation="0.390625" result="effect1_foregroundBlur_38_1067"/>
</filter>
<filter id="filter9_i_38_1067" x="56.4093" y="35.147" width="16.8256" height="9.20972" filterUnits="userSpaceOnUse" color-interpolation-filters="sRGB">
<feFlood flood-opacity="0" result="BackgroundImageFix"/>
<feBlend mode="normal" in="SourceGraphic" in2="BackgroundImageFix" result="shape"/>
<feColorMatrix in="SourceAlpha" type="matrix" values="0 0 0 0 0 0 0 0 0 0 0 0 0 0 0 0 0 0 127 0" result="hardAlpha"/>
<feOffset dx="0.78125" dy="-1.25"/>
<feGaussianBlur stdDeviation="0.9375"/>
<feComposite in2="hardAlpha" operator="arithmetic" k2="-1" k3="1"/>
<feColorMatrix type="matrix" values="0 0 0 0 0.0431373 0 0 0 0 0.0196078 0 0 0 0 0.027451 0 0 0 1 0"/>
<feBlend mode="normal" in2="shape" result="effect1_innerShadow_38_1067"/>
</filter>
<filter id="filter10_i_38_1067" x="26.7402" y="37.2971" width="16.4378" height="10.5068" filterUnits="userSpaceOnUse" color-interpolation-filters="sRGB">
<feFlood flood-opacity="0" result="BackgroundImageFix"/>
<feBlend mode="normal" in="SourceGraphic" in2="BackgroundImageFix" result="shape"/>
<feColorMatrix in="SourceAlpha" type="matrix" values="0 0 0 0 0 0 0 0 0 0 0 0 0 0 0 0 0 0 127 0" result="hardAlpha"/>
<feOffset dx="0.78125" dy="-1.25"/>
<feGaussianBlur stdDeviation="0.9375"/>
<feComposite in2="hardAlpha" operator="arithmetic" k2="-1" k3="1"/>
<feColorMatrix type="matrix" values="0 0 0 0 0.0431373 0 0 0 0 0.0196078 0 0 0 0 0.027451 0 0 0 1 0"/>
<feBlend mode="normal" in2="shape" result="effect1_innerShadow_38_1067"/>
</filter>
<filter id="filter11_f_38_1067" x="59.2511" y="49.1235" width="3.89087" height="3.6936" filterUnits="userSpaceOnUse" color-interpolation-filters="sRGB">
<feFlood flood-opacity="0" result="BackgroundImageFix"/>
<feBlend mode="normal" in="SourceGraphic" in2="BackgroundImageFix" result="shape"/>
<feGaussianBlur stdDeviation="0.15625" result="effect1_foregroundBlur_38_1067"/>
</filter>
<filter id="filter12_f_38_1067" x="64.4368" y="49.4492" width="4.19177" height="4.30176" filterUnits="userSpaceOnUse" color-interpolation-filters="sRGB">
<feFlood flood-opacity="0" result="BackgroundImageFix"/>
<feBlend mode="normal" in="SourceGraphic" in2="BackgroundImageFix" result="shape"/>
<feGaussianBlur stdDeviation="0.3125" result="effect1_foregroundBlur_38_1067"/>
</filter>
<filter id="filter13_f_38_1067" x="38.6154" y="51.323" width="4.78473" height="5.02344" filterUnits="userSpaceOnUse" color-interpolation-filters="sRGB">
<feFlood flood-opacity="0" result="BackgroundImageFix"/>
<feBlend mode="normal" in="SourceGraphic" in2="BackgroundImageFix" result="shape"/>
<feGaussianBlur stdDeviation="0.3125" result="effect1_foregroundBlur_38_1067"/>
</filter>
<filter id="filter14_f_38_1067" x="33.9535" y="51.2383" width="4.63504" height="3.75684" filterUnits="userSpaceOnUse" color-interpolation-filters="sRGB">
<feFlood flood-opacity="0" result="BackgroundImageFix"/>
<feBlend mode="normal" in="SourceGraphic" in2="BackgroundImageFix" result="shape"/>
<feGaussianBlur stdDeviation="0.15625" result="effect1_foregroundBlur_38_1067"/>
</filter>
<filter id="filter15_f_38_1067" x="56.7633" y="36.0964" width="15.627" height="6.52832" filterUnits="userSpaceOnUse" color-interpolation-filters="sRGB">
<feFlood flood-opacity="0" result="BackgroundImageFix"/>
<feBlend mode="normal" in="SourceGraphic" in2="BackgroundImageFix" result="shape"/>
<feGaussianBlur stdDeviation="0.78125" result="effect1_foregroundBlur_38_1067"/>
</filter>
<filter id="filter16_f_38_1067" x="26.7269" y="38.5825" width="15.6433" height="8.33325" filterUnits="userSpaceOnUse" color-interpolation-filters="sRGB">
<feFlood flood-opacity="0" result="BackgroundImageFix"/>
<feBlend mode="normal" in="SourceGraphic" in2="BackgroundImageFix" result="shape"/>
<feGaussianBlur stdDeviation="0.78125" result="effect1_foregroundBlur_38_1067"/>
</filter>
<filter id="filter17_f_38_1067" x="20.2647" y="29.5833" width="3.52838" height="11.2974" filterUnits="userSpaceOnUse" color-interpolation-filters="sRGB">
<feFlood flood-opacity="0" result="BackgroundImageFix"/>
<feBlend mode="normal" in="SourceGraphic" in2="BackgroundImageFix" result="shape"/>
<feGaussianBlur stdDeviation="0.390625" result="effect1_foregroundBlur_38_1067"/>
</filter>
<radialGradient id="paint0_radial_38_1067" cx="0" cy="0" r="1" gradientUnits="userSpaceOnUse" gradientTransform="translate(13.6665 59.6459) rotate(-5) scale(10.2267 17.8968)">
<stop offset="0.351" stop-color="#CF9888"/>
<stop offset="1" stop-color="#BE8C77"/>
</radialGradient>
<linearGradient id="paint1_linear_38_1067" x1="23.499" y1="60.4145" x2="19.782" y2="60.7397" gradientUnits="userSpaceOnUse">
<stop stop-color="#BA7C6B"/>
<stop offset="1" stop-color="#BE8474"/>
</linearGradient>
<linearGradient id="paint2_linear_38_1067" x1="84.3399" y1="47.0759" x2="80.8745" y2="62.2168" gradientUnits="userSpaceOnUse">
<stop stop-color="#FBD3BD"/>
<stop offset="1" stop-color="#F0B8A4"/>
</linearGradient>
<radialGradient id="paint3_radial_38_1067" cx="0" cy="0" r="1" gradientUnits="userSpaceOnUse" gradientTransform="translate(80.613 52.236) rotate(-41.0599) scale(5.9596 6.80212)">
<stop offset="0.543" stop-color="#D9AA94"/>
<stop offset="1" stop-color="#D9AA94" stop-opacity="0"/>
</radialGradient>
<radialGradient id="paint4_radial_38_1067" cx="0" cy="0" r="1" gradientUnits="userSpaceOnUse" gradientTransform="translate(78.7644 58.7508) rotate(-66.4674) scale(10.0198 5.86458)">
<stop offset="0.755" stop-color="#D6A38D" stop-opacity="0"/>
<stop offset="0.916" stop-color="#D6A38D"/>
</radialGradient>
<radialGradient id="paint5_radial_38_1067" cx="0" cy="0" r="1" gradientUnits="userSpaceOnUse" gradientTransform="translate(78.5876 53.9649) rotate(39.708) scale(2.12612 2.74084)">
<stop stop-color="#D5A58E"/>
<stop offset="1" stop-color="#D5A58E" stop-opacity="0"/>
</radialGradient>
<linearGradient id="paint6_linear_38_1067" x1="74.5512" y1="56.5966" x2="30.7923" y2="67.0816" gradientUnits="userSpaceOnUse">
<stop stop-color="#FFDAC0"/>
<stop offset="1" stop-color="#DAA594"/>
</linearGradient>
<radialGradient id="paint7_radial_38_1067" cx="0" cy="0" r="1" gradientUnits="userSpaceOnUse" gradientTransform="translate(56.5345 46.2975) rotate(95.62) scale(47.6919 64.7391)">
<stop offset="0.746" stop-color="#B57995" stop-opacity="0"/>
<stop offset="1" stop-color="#B57995"/>
</radialGradient>
<linearGradient id="paint8_linear_38_1067" x1="21.1639" y1="77.0367" x2="32.0538" y2="75.6919" gradientUnits="userSpaceOnUse">
<stop stop-color="#E8AD97"/>
<stop offset="1" stop-color="#E8AD97" stop-opacity="0"/>
</linearGradient>
<radialGradient id="paint9_radial_38_1067" cx="0" cy="0" r="1" gradientUnits="userSpaceOnUse" gradientTransform="translate(63.8949 47.8106) rotate(-95) scale(7.61719 9.375)">
<stop stop-color="#F5B7A7"/>
<stop offset="1" stop-color="#F5B7A7" stop-opacity="0"/>
</radialGradient>
<radialGradient id="paint10_radial_38_1067" cx="0" cy="0" r="1" gradientUnits="userSpaceOnUse" gradientTransform="translate(37.4166 49.9327) rotate(-95) scale(8.10547 10.0799)">
<stop stop-color="#D0958D"/>
<stop offset="1" stop-color="#D0958D" stop-opacity="0"/>
</radialGradient>
<linearGradient id="paint11_linear_38_1067" x1="46.5177" y1="41.589" x2="92.3185" y2="20.5233" gradientUnits="userSpaceOnUse">
<stop stop-color="#FFDEC4"/>
<stop offset="1" stop-color="#FFDEC4" stop-opacity="0"/>
</linearGradient>
<radialGradient id="paint12_radial_38_1067" cx="0" cy="0" r="1" gradientUnits="userSpaceOnUse" gradientTransform="translate(74.064 30.3394) rotate(-79.899) scale(17.8464 6.61801)">
<stop stop-color="#464344"/>
<stop offset="1" stop-color="#464344" stop-opacity="0"/>
</radialGradient>
<radialGradient id="paint13_radial_38_1067" cx="0" cy="0" r="1" gradientUnits="userSpaceOnUse" gradientTransform="translate(63.6315 20.9567) rotate(0.257847) scale(22.3839 12.0357)">
<stop offset="0.122" stop-color="#4A4648"/>
<stop offset="1" stop-color="#4A4648" stop-opacity="0"/>
</radialGradient>
<radialGradient id="paint14_radial_38_1067" cx="0" cy="0" r="1" gradientUnits="userSpaceOnUse" gradientTransform="translate(46.5524 6.45259) rotate(85) scale(9.78563 15.1552)">
<stop stop-color="#423D3F"/>
<stop offset="1" stop-color="#423D3F" stop-opacity="0"/>
</radialGradient>
<radialGradient id="paint15_radial_38_1067" cx="0" cy="0" r="1" gradientUnits="userSpaceOnUse" gradientTransform="translate(12.5785 49.3078) rotate(-41.235) scale(22.2091 34.7944)">
<stop stop-color="#463C39"/>
<stop offset="1" stop-color="#463C39" stop-opacity="0"/>
</radialGradient>
<linearGradient id="paint16_linear_38_1067" x1="46.4383" y1="62.9119" x2="51.8831" y2="62.4356" gradientUnits="userSpaceOnUse">
<stop stop-color="#DFA790"/>
<stop offset="1" stop-color="#DFA790" stop-opacity="0"/>
</linearGradient>
<linearGradient id="paint17_linear_38_1067" x1="57.0651" y1="63.8675" x2="51.1055" y2="64.3042" gradientUnits="userSpaceOnUse">
<stop stop-color="#FFDFC4"/>
<stop offset="1" stop-color="#FFDFC4" stop-opacity="0"/>
</linearGradient>
<linearGradient id="paint18_linear_38_1067" x1="53.1244" y1="68.5569" x2="52.8333" y2="65.229" gradientUnits="userSpaceOnUse">
<stop stop-color="#DC9C96"/>
<stop offset="1" stop-color="#DC9C96" stop-opacity="0"/>
</linearGradient>
<radialGradient id="paint19_radial_38_1067" cx="0" cy="0" r="1" gradientUnits="userSpaceOnUse" gradientTransform="translate(53.6388 65.5444) rotate(85) scale(1.14747 3.68653)">
<stop stop-color="#FFD7C1"/>
<stop offset="1" stop-color="#FFD7C1" stop-opacity="0"/>
</radialGradient>
<linearGradient id="paint20_linear_38_1067" x1="52.7472" y1="68.8346" x2="52.662" y2="67.8602" gradientUnits="userSpaceOnUse">
<stop stop-color="#D6938E"/>
<stop offset="1" stop-color="#D6938E" stop-opacity="0"/>
</linearGradient>
<linearGradient id="paint21_linear_38_1067" x1="46.794" y1="78.5587" x2="48.9724" y2="74.3435" gradientUnits="userSpaceOnUse">
<stop stop-color="#D9A4A4"/>
<stop offset="0.663" stop-color="#D9A4A4" stop-opacity="0"/>
</linearGradient>
<radialGradient id="paint22_radial_38_1067" cx="0" cy="0" r="1" gradientUnits="userSpaceOnUse" gradientTransform="translate(63.226 51.3172) rotate(85) scale(4.72697 7.51879)">
<stop offset="0.802" stop-color="#7D574A"/>
<stop offset="1" stop-color="#664944"/>
</radialGradient>
<radialGradient id="paint23_radial_38_1067" cx="0" cy="0" r="1" gradientUnits="userSpaceOnUse" gradientTransform="translate(61.9426 51.9243) rotate(-132.812) scale(2.204 3.03441)">
<stop offset="0.766" stop-color="#FFE6E2" stop-opacity="0"/>
<stop offset="0.966" stop-color="#FFE6E2"/>
</radialGradient>
<linearGradient id="paint24_linear_38_1067" x1="67.7676" y1="51.2365" x2="66.0445" y2="52.5166" gradientUnits="userSpaceOnUse">
<stop stop-color="#B4948D"/>
<stop offset="1" stop-color="#B4948D" stop-opacity="0"/>
</linearGradient>
<radialGradient id="paint25_radial_38_1067" cx="0" cy="0" r="1" gradientUnits="userSpaceOnUse" gradientTransform="translate(37.8946 53.5333) rotate(85) scale(4.72722 7.51919)">
<stop offset="0.802" stop-color="#7D574A"/>
<stop offset="1" stop-color="#664944"/>
</radialGradient>
<linearGradient id="paint26_linear_38_1067" x1="42.24" y1="53.4694" x2="40.5169" y2="54.7495" gradientUnits="userSpaceOnUse">
<stop stop-color="#B4948D"/>
<stop offset="1" stop-color="#B4948D" stop-opacity="0"/>
</linearGradient>
<radialGradient id="paint27_radial_38_1067" cx="0" cy="0" r="1" gradientUnits="userSpaceOnUse" gradientTransform="translate(37.1942 54.7046) rotate(-123.811) scale(2.87902 3.46072)">
<stop offset="0.766" stop-color="#FFE6E2" stop-opacity="0"/>
<stop offset="0.966" stop-color="#FFE6E2"/>
</radialGradient>
<linearGradient id="paint28_linear_38_1067" x1="66.7743" y1="38.8074" x2="63.8976" y2="34.0369" gradientUnits="userSpaceOnUse">
<stop stop-color="#353435"/>
<stop offset="1" stop-color="#353435" stop-opacity="0"/>
</linearGradient>
<linearGradient id="paint29_linear_38_1067" x1="35.9114" y1="40.7613" x2="28.7533" y2="38.4702" gradientUnits="userSpaceOnUse">
<stop stop-color="#353435"/>
<stop offset="1" stop-color="#353435" stop-opacity="0"/>
</linearGradient>
<linearGradient id="paint30_linear_38_1067" x1="21.3648" y1="30.2478" x2="22.4603" y2="42.7687" gradientUnits="userSpaceOnUse">
<stop stop-color="#3C393A"/>
<stop offset="1" stop-color="#3C393A" stop-opacity="0"/>
</linearGradient>
</defs>
</svg>
