<svg width="100" height="100" viewBox="0 0 100 100" fill="none" xmlns="http://www.w3.org/2000/svg">
<g filter="url(#filter0_i_38_1208)">
<path fill-rule="evenodd" clip-rule="evenodd" d="M90.47 67.7448C91.9448 65.2729 92.8357 62.4969 93.0748 59.6284C93.312 56.9169 92.9744 54.3214 92.1811 51.915L92.2123 51.9177C91.8502 50.8374 91.3904 49.7923 90.8385 48.7955L90.8274 48.7788C89.1007 45.5469 88.3521 41.8823 88.6728 38.2321L88.6783 38.1699C89.1225 33.0921 87.5314 28.0459 84.2551 24.1413C80.9787 20.2366 76.2854 17.7935 71.2077 17.3492C70.1492 17.2566 69.1908 16.7022 68.6797 15.7666C67.121 13.1406 64.9598 10.9232 62.3748 9.2974C59.7898 7.67161 56.8551 6.68415 53.8131 6.41658C50.7708 6.15185 47.7092 6.6147 44.8811 7.7669C42.0531 8.9191 39.5397 10.7276 37.5487 13.043C36.8884 13.8134 35.8428 14.2552 34.7843 14.1626L34.2919 14.1258C29.2892 13.8174 24.364 15.4755 20.5664 18.7467C16.7688 22.0178 14.3994 26.6431 13.9634 31.6363L13.9582 31.6954C13.6396 35.3378 12.2679 38.8253 10.0049 41.7077L9.98745 41.7282C7.6507 44.6794 6.23209 48.252 5.90773 52.0023C5.64572 54.9971 6.10769 57.82 7.06356 60.4477C7.23072 60.8769 7.29678 61.3389 7.25663 61.7978C7.21649 62.2567 7.07121 62.7001 6.83206 63.0938C5.38271 65.5335 4.49633 68.266 4.23761 71.0919C3.33336 81.4274 10.9466 90.5005 21.2821 91.4047L71.0918 95.7625C81.4273 96.6667 90.5004 89.0535 91.4046 78.718C91.6411 75.8891 91.2428 73.0431 90.2387 70.3878C90.072 69.9591 90.0062 69.4977 90.0463 69.0394C90.0864 68.5811 90.2313 68.1381 90.47 67.7448ZM20.6674 46.0097L20.5958 46.0034L26.3574 60.2849C25.6503 76.6135 33.4242 60.9032 48.9275 62.2595C64.4307 63.6159 69.6086 82.3102 71.7477 66.1068L79.9646 48.1296C80.2854 40.8768 75.0936 39.9113 74.0476 39.8197L55.3627 38.185C51.7197 37.8732 48.2076 36.6783 45.1303 34.7037C42.053 32.7292 39.5033 30.0344 37.7019 26.8527C37.5645 26.6122 37.3646 26.4133 37.1235 26.277C36.8824 26.1407 36.6089 26.0721 36.332 26.0784C36.0551 26.0847 35.785 26.1657 35.5504 26.3128C35.3157 26.4599 35.1251 26.6677 34.9988 26.9142L34.4207 27.9992C32.8469 31.0715 30.1511 33.4203 26.8923 34.5586C26.7939 34.5835 26.6908 34.6142 26.5831 34.6508C26.473 34.6892 26.37 34.72 26.2739 34.7429C24.8417 35.336 21.4427 37.1843 20.8423 42.6841L20.7493 44.464L20.6674 46.0097Z" fill="url(#paint0_linear_38_1208)"/>
<path fill-rule="evenodd" clip-rule="evenodd" d="M90.47 67.7448C91.9448 65.2729 92.8357 62.4969 93.0748 59.6284C93.312 56.9169 92.9744 54.3214 92.1811 51.915L92.2123 51.9177C91.8502 50.8374 91.3904 49.7923 90.8385 48.7955L90.8274 48.7788C89.1007 45.5469 88.3521 41.8823 88.6728 38.2321L88.6783 38.1699C89.1225 33.0921 87.5314 28.0459 84.2551 24.1413C80.9787 20.2366 76.2854 17.7935 71.2077 17.3492C70.1492 17.2566 69.1908 16.7022 68.6797 15.7666C67.121 13.1406 64.9598 10.9232 62.3748 9.2974C59.7898 7.67161 56.8551 6.68415 53.8131 6.41658C50.7708 6.15185 47.7092 6.6147 44.8811 7.7669C42.0531 8.9191 39.5397 10.7276 37.5487 13.043C36.8884 13.8134 35.8428 14.2552 34.7843 14.1626L34.2919 14.1258C29.2892 13.8174 24.364 15.4755 20.5664 18.7467C16.7688 22.0178 14.3994 26.6431 13.9634 31.6363L13.9582 31.6954C13.6396 35.3378 12.2679 38.8253 10.0049 41.7077L9.98745 41.7282C7.6507 44.6794 6.23209 48.252 5.90773 52.0023C5.64572 54.9971 6.10769 57.82 7.06356 60.4477C7.23072 60.8769 7.29678 61.3389 7.25663 61.7978C7.21649 62.2567 7.07121 62.7001 6.83206 63.0938C5.38271 65.5335 4.49633 68.266 4.23761 71.0919C3.33336 81.4274 10.9466 90.5005 21.2821 91.4047L71.0918 95.7625C81.4273 96.6667 90.5004 89.0535 91.4046 78.718C91.6411 75.8891 91.2428 73.0431 90.2387 70.3878C90.072 69.9591 90.0062 69.4977 90.0463 69.0394C90.0864 68.5811 90.2313 68.1381 90.47 67.7448ZM20.6674 46.0097L20.5958 46.0034L26.3574 60.2849C25.6503 76.6135 33.4242 60.9032 48.9275 62.2595C64.4307 63.6159 69.6086 82.3102 71.7477 66.1068L79.9646 48.1296C80.2854 40.8768 75.0936 39.9113 74.0476 39.8197L55.3627 38.185C51.7197 37.8732 48.2076 36.6783 45.1303 34.7037C42.053 32.7292 39.5033 30.0344 37.7019 26.8527C37.5645 26.6122 37.3646 26.4133 37.1235 26.277C36.8824 26.1407 36.6089 26.0721 36.332 26.0784C36.0551 26.0847 35.785 26.1657 35.5504 26.3128C35.3157 26.4599 35.1251 26.6677 34.9988 26.9142L34.4207 27.9992C32.8469 31.0715 30.1511 33.4203 26.8923 34.5586C26.7939 34.5835 26.6908 34.6142 26.5831 34.6508C26.473 34.6892 26.37 34.72 26.2739 34.7429C24.8417 35.336 21.4427 37.1843 20.8423 42.6841L20.7493 44.464L20.6674 46.0097Z" fill="url(#paint1_radial_38_1208)"/>
<path fill-rule="evenodd" clip-rule="evenodd" d="M90.47 67.7448C91.9448 65.2729 92.8357 62.4969 93.0748 59.6284C93.312 56.9169 92.9744 54.3214 92.1811 51.915L92.2123 51.9177C91.8502 50.8374 91.3904 49.7923 90.8385 48.7955L90.8274 48.7788C89.1007 45.5469 88.3521 41.8823 88.6728 38.2321L88.6783 38.1699C89.1225 33.0921 87.5314 28.0459 84.2551 24.1413C80.9787 20.2366 76.2854 17.7935 71.2077 17.3492C70.1492 17.2566 69.1908 16.7022 68.6797 15.7666C67.121 13.1406 64.9598 10.9232 62.3748 9.2974C59.7898 7.67161 56.8551 6.68415 53.8131 6.41658C50.7708 6.15185 47.7092 6.6147 44.8811 7.7669C42.0531 8.9191 39.5397 10.7276 37.5487 13.043C36.8884 13.8134 35.8428 14.2552 34.7843 14.1626L34.2919 14.1258C29.2892 13.8174 24.364 15.4755 20.5664 18.7467C16.7688 22.0178 14.3994 26.6431 13.9634 31.6363L13.9582 31.6954C13.6396 35.3378 12.2679 38.8253 10.0049 41.7077L9.98745 41.7282C7.6507 44.6794 6.23209 48.252 5.90773 52.0023C5.64572 54.9971 6.10769 57.82 7.06356 60.4477C7.23072 60.8769 7.29678 61.3389 7.25663 61.7978C7.21649 62.2567 7.07121 62.7001 6.83206 63.0938C5.38271 65.5335 4.49633 68.266 4.23761 71.0919C3.33336 81.4274 10.9466 90.5005 21.2821 91.4047L71.0918 95.7625C81.4273 96.6667 90.5004 89.0535 91.4046 78.718C91.6411 75.8891 91.2428 73.0431 90.2387 70.3878C90.072 69.9591 90.0062 69.4977 90.0463 69.0394C90.0864 68.5811 90.2313 68.1381 90.47 67.7448ZM20.6674 46.0097L20.5958 46.0034L26.3574 60.2849C25.6503 76.6135 33.4242 60.9032 48.9275 62.2595C64.4307 63.6159 69.6086 82.3102 71.7477 66.1068L79.9646 48.1296C80.2854 40.8768 75.0936 39.9113 74.0476 39.8197L55.3627 38.185C51.7197 37.8732 48.2076 36.6783 45.1303 34.7037C42.053 32.7292 39.5033 30.0344 37.7019 26.8527C37.5645 26.6122 37.3646 26.4133 37.1235 26.277C36.8824 26.1407 36.6089 26.0721 36.332 26.0784C36.0551 26.0847 35.785 26.1657 35.5504 26.3128C35.3157 26.4599 35.1251 26.6677 34.9988 26.9142L34.4207 27.9992C32.8469 31.0715 30.1511 33.4203 26.8923 34.5586C26.7939 34.5835 26.6908 34.6142 26.5831 34.6508C26.473 34.6892 26.37 34.72 26.2739 34.7429C24.8417 35.336 21.4427 37.1843 20.8423 42.6841L20.7493 44.464L20.6674 46.0097Z" fill="url(#paint2_radial_38_1208)"/>
<path fill-rule="evenodd" clip-rule="evenodd" d="M90.47 67.7448C91.9448 65.2729 92.8357 62.4969 93.0748 59.6284C93.312 56.9169 92.9744 54.3214 92.1811 51.915L92.2123 51.9177C91.8502 50.8374 91.3904 49.7923 90.8385 48.7955L90.8274 48.7788C89.1007 45.5469 88.3521 41.8823 88.6728 38.2321L88.6783 38.1699C89.1225 33.0921 87.5314 28.0459 84.2551 24.1413C80.9787 20.2366 76.2854 17.7935 71.2077 17.3492C70.1492 17.2566 69.1908 16.7022 68.6797 15.7666C67.121 13.1406 64.9598 10.9232 62.3748 9.2974C59.7898 7.67161 56.8551 6.68415 53.8131 6.41658C50.7708 6.15185 47.7092 6.6147 44.8811 7.7669C42.0531 8.9191 39.5397 10.7276 37.5487 13.043C36.8884 13.8134 35.8428 14.2552 34.7843 14.1626L34.2919 14.1258C29.2892 13.8174 24.364 15.4755 20.5664 18.7467C16.7688 22.0178 14.3994 26.6431 13.9634 31.6363L13.9582 31.6954C13.6396 35.3378 12.2679 38.8253 10.0049 41.7077L9.98745 41.7282C7.6507 44.6794 6.23209 48.252 5.90773 52.0023C5.64572 54.9971 6.10769 57.82 7.06356 60.4477C7.23072 60.8769 7.29678 61.3389 7.25663 61.7978C7.21649 62.2567 7.07121 62.7001 6.83206 63.0938C5.38271 65.5335 4.49633 68.266 4.23761 71.0919C3.33336 81.4274 10.9466 90.5005 21.2821 91.4047L71.0918 95.7625C81.4273 96.6667 90.5004 89.0535 91.4046 78.718C91.6411 75.8891 91.2428 73.0431 90.2387 70.3878C90.072 69.9591 90.0062 69.4977 90.0463 69.0394C90.0864 68.5811 90.2313 68.1381 90.47 67.7448ZM20.6674 46.0097L20.5958 46.0034L26.3574 60.2849C25.6503 76.6135 33.4242 60.9032 48.9275 62.2595C64.4307 63.6159 69.6086 82.3102 71.7477 66.1068L79.9646 48.1296C80.2854 40.8768 75.0936 39.9113 74.0476 39.8197L55.3627 38.185C51.7197 37.8732 48.2076 36.6783 45.1303 34.7037C42.053 32.7292 39.5033 30.0344 37.7019 26.8527C37.5645 26.6122 37.3646 26.4133 37.1235 26.277C36.8824 26.1407 36.6089 26.0721 36.332 26.0784C36.0551 26.0847 35.785 26.1657 35.5504 26.3128C35.3157 26.4599 35.1251 26.6677 34.9988 26.9142L34.4207 27.9992C32.8469 31.0715 30.1511 33.4203 26.8923 34.5586C26.7939 34.5835 26.6908 34.6142 26.5831 34.6508C26.473 34.6892 26.37 34.72 26.2739 34.7429C24.8417 35.336 21.4427 37.1843 20.8423 42.6841L20.7493 44.464L20.6674 46.0097Z" fill="url(#paint3_radial_38_1208)"/>
<path fill-rule="evenodd" clip-rule="evenodd" d="M90.47 67.7448C91.9448 65.2729 92.8357 62.4969 93.0748 59.6284C93.312 56.9169 92.9744 54.3214 92.1811 51.915L92.2123 51.9177C91.8502 50.8374 91.3904 49.7923 90.8385 48.7955L90.8274 48.7788C89.1007 45.5469 88.3521 41.8823 88.6728 38.2321L88.6783 38.1699C89.1225 33.0921 87.5314 28.0459 84.2551 24.1413C80.9787 20.2366 76.2854 17.7935 71.2077 17.3492C70.1492 17.2566 69.1908 16.7022 68.6797 15.7666C67.121 13.1406 64.9598 10.9232 62.3748 9.2974C59.7898 7.67161 56.8551 6.68415 53.8131 6.41658C50.7708 6.15185 47.7092 6.6147 44.8811 7.7669C42.0531 8.9191 39.5397 10.7276 37.5487 13.043C36.8884 13.8134 35.8428 14.2552 34.7843 14.1626L34.2919 14.1258C29.2892 13.8174 24.364 15.4755 20.5664 18.7467C16.7688 22.0178 14.3994 26.6431 13.9634 31.6363L13.9582 31.6954C13.6396 35.3378 12.2679 38.8253 10.0049 41.7077L9.98745 41.7282C7.6507 44.6794 6.23209 48.252 5.90773 52.0023C5.64572 54.9971 6.10769 57.82 7.06356 60.4477C7.23072 60.8769 7.29678 61.3389 7.25663 61.7978C7.21649 62.2567 7.07121 62.7001 6.83206 63.0938C5.38271 65.5335 4.49633 68.266 4.23761 71.0919C3.33336 81.4274 10.9466 90.5005 21.2821 91.4047L71.0918 95.7625C81.4273 96.6667 90.5004 89.0535 91.4046 78.718C91.6411 75.8891 91.2428 73.0431 90.2387 70.3878C90.072 69.9591 90.0062 69.4977 90.0463 69.0394C90.0864 68.5811 90.2313 68.1381 90.47 67.7448ZM20.6674 46.0097L20.5958 46.0034L26.3574 60.2849C25.6503 76.6135 33.4242 60.9032 48.9275 62.2595C64.4307 63.6159 69.6086 82.3102 71.7477 66.1068L79.9646 48.1296C80.2854 40.8768 75.0936 39.9113 74.0476 39.8197L55.3627 38.185C51.7197 37.8732 48.2076 36.6783 45.1303 34.7037C42.053 32.7292 39.5033 30.0344 37.7019 26.8527C37.5645 26.6122 37.3646 26.4133 37.1235 26.277C36.8824 26.1407 36.6089 26.0721 36.332 26.0784C36.0551 26.0847 35.785 26.1657 35.5504 26.3128C35.3157 26.4599 35.1251 26.6677 34.9988 26.9142L34.4207 27.9992C32.8469 31.0715 30.1511 33.4203 26.8923 34.5586C26.7939 34.5835 26.6908 34.6142 26.5831 34.6508C26.473 34.6892 26.37 34.72 26.2739 34.7429C24.8417 35.336 21.4427 37.1843 20.8423 42.6841L20.7493 44.464L20.6674 46.0097Z" fill="url(#paint4_radial_38_1208)"/>
<path fill-rule="evenodd" clip-rule="evenodd" d="M90.47 67.7448C91.9448 65.2729 92.8357 62.4969 93.0748 59.6284C93.312 56.9169 92.9744 54.3214 92.1811 51.915L92.2123 51.9177C91.8502 50.8374 91.3904 49.7923 90.8385 48.7955L90.8274 48.7788C89.1007 45.5469 88.3521 41.8823 88.6728 38.2321L88.6783 38.1699C89.1225 33.0921 87.5314 28.0459 84.2551 24.1413C80.9787 20.2366 76.2854 17.7935 71.2077 17.3492C70.1492 17.2566 69.1908 16.7022 68.6797 15.7666C67.121 13.1406 64.9598 10.9232 62.3748 9.2974C59.7898 7.67161 56.8551 6.68415 53.8131 6.41658C50.7708 6.15185 47.7092 6.6147 44.8811 7.7669C42.0531 8.9191 39.5397 10.7276 37.5487 13.043C36.8884 13.8134 35.8428 14.2552 34.7843 14.1626L34.2919 14.1258C29.2892 13.8174 24.364 15.4755 20.5664 18.7467C16.7688 22.0178 14.3994 26.6431 13.9634 31.6363L13.9582 31.6954C13.6396 35.3378 12.2679 38.8253 10.0049 41.7077L9.98745 41.7282C7.6507 44.6794 6.23209 48.252 5.90773 52.0023C5.64572 54.9971 6.10769 57.82 7.06356 60.4477C7.23072 60.8769 7.29678 61.3389 7.25663 61.7978C7.21649 62.2567 7.07121 62.7001 6.83206 63.0938C5.38271 65.5335 4.49633 68.266 4.23761 71.0919C3.33336 81.4274 10.9466 90.5005 21.2821 91.4047L71.0918 95.7625C81.4273 96.6667 90.5004 89.0535 91.4046 78.718C91.6411 75.8891 91.2428 73.0431 90.2387 70.3878C90.072 69.9591 90.0062 69.4977 90.0463 69.0394C90.0864 68.5811 90.2313 68.1381 90.47 67.7448ZM20.6674 46.0097L20.5958 46.0034L26.3574 60.2849C25.6503 76.6135 33.4242 60.9032 48.9275 62.2595C64.4307 63.6159 69.6086 82.3102 71.7477 66.1068L79.9646 48.1296C80.2854 40.8768 75.0936 39.9113 74.0476 39.8197L55.3627 38.185C51.7197 37.8732 48.2076 36.6783 45.1303 34.7037C42.053 32.7292 39.5033 30.0344 37.7019 26.8527C37.5645 26.6122 37.3646 26.4133 37.1235 26.277C36.8824 26.1407 36.6089 26.0721 36.332 26.0784C36.0551 26.0847 35.785 26.1657 35.5504 26.3128C35.3157 26.4599 35.1251 26.6677 34.9988 26.9142L34.4207 27.9992C32.8469 31.0715 30.1511 33.4203 26.8923 34.5586C26.7939 34.5835 26.6908 34.6142 26.5831 34.6508C26.473 34.6892 26.37 34.72 26.2739 34.7429C24.8417 35.336 21.4427 37.1843 20.8423 42.6841L20.7493 44.464L20.6674 46.0097Z" fill="url(#paint5_radial_38_1208)"/>
<path fill-rule="evenodd" clip-rule="evenodd" d="M90.47 67.7448C91.9448 65.2729 92.8357 62.4969 93.0748 59.6284C93.312 56.9169 92.9744 54.3214 92.1811 51.915L92.2123 51.9177C91.8502 50.8374 91.3904 49.7923 90.8385 48.7955L90.8274 48.7788C89.1007 45.5469 88.3521 41.8823 88.6728 38.2321L88.6783 38.1699C89.1225 33.0921 87.5314 28.0459 84.2551 24.1413C80.9787 20.2366 76.2854 17.7935 71.2077 17.3492C70.1492 17.2566 69.1908 16.7022 68.6797 15.7666C67.121 13.1406 64.9598 10.9232 62.3748 9.2974C59.7898 7.67161 56.8551 6.68415 53.8131 6.41658C50.7708 6.15185 47.7092 6.6147 44.8811 7.7669C42.0531 8.9191 39.5397 10.7276 37.5487 13.043C36.8884 13.8134 35.8428 14.2552 34.7843 14.1626L34.2919 14.1258C29.2892 13.8174 24.364 15.4755 20.5664 18.7467C16.7688 22.0178 14.3994 26.6431 13.9634 31.6363L13.9582 31.6954C13.6396 35.3378 12.2679 38.8253 10.0049 41.7077L9.98745 41.7282C7.6507 44.6794 6.23209 48.252 5.90773 52.0023C5.64572 54.9971 6.10769 57.82 7.06356 60.4477C7.23072 60.8769 7.29678 61.3389 7.25663 61.7978C7.21649 62.2567 7.07121 62.7001 6.83206 63.0938C5.38271 65.5335 4.49633 68.266 4.23761 71.0919C3.33336 81.4274 10.9466 90.5005 21.2821 91.4047L71.0918 95.7625C81.4273 96.6667 90.5004 89.0535 91.4046 78.718C91.6411 75.8891 91.2428 73.0431 90.2387 70.3878C90.072 69.9591 90.0062 69.4977 90.0463 69.0394C90.0864 68.5811 90.2313 68.1381 90.47 67.7448ZM20.6674 46.0097L20.5958 46.0034L26.3574 60.2849C25.6503 76.6135 33.4242 60.9032 48.9275 62.2595C64.4307 63.6159 69.6086 82.3102 71.7477 66.1068L79.9646 48.1296C80.2854 40.8768 75.0936 39.9113 74.0476 39.8197L55.3627 38.185C51.7197 37.8732 48.2076 36.6783 45.1303 34.7037C42.053 32.7292 39.5033 30.0344 37.7019 26.8527C37.5645 26.6122 37.3646 26.4133 37.1235 26.277C36.8824 26.1407 36.6089 26.0721 36.332 26.0784C36.0551 26.0847 35.785 26.1657 35.5504 26.3128C35.3157 26.4599 35.1251 26.6677 34.9988 26.9142L34.4207 27.9992C32.8469 31.0715 30.1511 33.4203 26.8923 34.5586C26.7939 34.5835 26.6908 34.6142 26.5831 34.6508C26.473 34.6892 26.37 34.72 26.2739 34.7429C24.8417 35.336 21.4427 37.1843 20.8423 42.6841L20.7493 44.464L20.6674 46.0097Z" fill="url(#paint6_radial_38_1208)"/>
<path fill-rule="evenodd" clip-rule="evenodd" d="M90.47 67.7448C91.9448 65.2729 92.8357 62.4969 93.0748 59.6284C93.312 56.9169 92.9744 54.3214 92.1811 51.915L92.2123 51.9177C91.8502 50.8374 91.3904 49.7923 90.8385 48.7955L90.8274 48.7788C89.1007 45.5469 88.3521 41.8823 88.6728 38.2321L88.6783 38.1699C89.1225 33.0921 87.5314 28.0459 84.2551 24.1413C80.9787 20.2366 76.2854 17.7935 71.2077 17.3492C70.1492 17.2566 69.1908 16.7022 68.6797 15.7666C67.121 13.1406 64.9598 10.9232 62.3748 9.2974C59.7898 7.67161 56.8551 6.68415 53.8131 6.41658C50.7708 6.15185 47.7092 6.6147 44.8811 7.7669C42.0531 8.9191 39.5397 10.7276 37.5487 13.043C36.8884 13.8134 35.8428 14.2552 34.7843 14.1626L34.2919 14.1258C29.2892 13.8174 24.364 15.4755 20.5664 18.7467C16.7688 22.0178 14.3994 26.6431 13.9634 31.6363L13.9582 31.6954C13.6396 35.3378 12.2679 38.8253 10.0049 41.7077L9.98745 41.7282C7.6507 44.6794 6.23209 48.252 5.90773 52.0023C5.64572 54.9971 6.10769 57.82 7.06356 60.4477C7.23072 60.8769 7.29678 61.3389 7.25663 61.7978C7.21649 62.2567 7.07121 62.7001 6.83206 63.0938C5.38271 65.5335 4.49633 68.266 4.23761 71.0919C3.33336 81.4274 10.9466 90.5005 21.2821 91.4047L71.0918 95.7625C81.4273 96.6667 90.5004 89.0535 91.4046 78.718C91.6411 75.8891 91.2428 73.0431 90.2387 70.3878C90.072 69.9591 90.0062 69.4977 90.0463 69.0394C90.0864 68.5811 90.2313 68.1381 90.47 67.7448ZM20.6674 46.0097L20.5958 46.0034L26.3574 60.2849C25.6503 76.6135 33.4242 60.9032 48.9275 62.2595C64.4307 63.6159 69.6086 82.3102 71.7477 66.1068L79.9646 48.1296C80.2854 40.8768 75.0936 39.9113 74.0476 39.8197L55.3627 38.185C51.7197 37.8732 48.2076 36.6783 45.1303 34.7037C42.053 32.7292 39.5033 30.0344 37.7019 26.8527C37.5645 26.6122 37.3646 26.4133 37.1235 26.277C36.8824 26.1407 36.6089 26.0721 36.332 26.0784C36.0551 26.0847 35.785 26.1657 35.5504 26.3128C35.3157 26.4599 35.1251 26.6677 34.9988 26.9142L34.4207 27.9992C32.8469 31.0715 30.1511 33.4203 26.8923 34.5586C26.7939 34.5835 26.6908 34.6142 26.5831 34.6508C26.473 34.6892 26.37 34.72 26.2739 34.7429C24.8417 35.336 21.4427 37.1843 20.8423 42.6841L20.7493 44.464L20.6674 46.0097Z" fill="url(#paint7_radial_38_1208)"/>
<path fill-rule="evenodd" clip-rule="evenodd" d="M90.47 67.7448C91.9448 65.2729 92.8357 62.4969 93.0748 59.6284C93.312 56.9169 92.9744 54.3214 92.1811 51.915L92.2123 51.9177C91.8502 50.8374 91.3904 49.7923 90.8385 48.7955L90.8274 48.7788C89.1007 45.5469 88.3521 41.8823 88.6728 38.2321L88.6783 38.1699C89.1225 33.0921 87.5314 28.0459 84.2551 24.1413C80.9787 20.2366 76.2854 17.7935 71.2077 17.3492C70.1492 17.2566 69.1908 16.7022 68.6797 15.7666C67.121 13.1406 64.9598 10.9232 62.3748 9.2974C59.7898 7.67161 56.8551 6.68415 53.8131 6.41658C50.7708 6.15185 47.7092 6.6147 44.8811 7.7669C42.0531 8.9191 39.5397 10.7276 37.5487 13.043C36.8884 13.8134 35.8428 14.2552 34.7843 14.1626L34.2919 14.1258C29.2892 13.8174 24.364 15.4755 20.5664 18.7467C16.7688 22.0178 14.3994 26.6431 13.9634 31.6363L13.9582 31.6954C13.6396 35.3378 12.2679 38.8253 10.0049 41.7077L9.98745 41.7282C7.6507 44.6794 6.23209 48.252 5.90773 52.0023C5.64572 54.9971 6.10769 57.82 7.06356 60.4477C7.23072 60.8769 7.29678 61.3389 7.25663 61.7978C7.21649 62.2567 7.07121 62.7001 6.83206 63.0938C5.38271 65.5335 4.49633 68.266 4.23761 71.0919C3.33336 81.4274 10.9466 90.5005 21.2821 91.4047L71.0918 95.7625C81.4273 96.6667 90.5004 89.0535 91.4046 78.718C91.6411 75.8891 91.2428 73.0431 90.2387 70.3878C90.072 69.9591 90.0062 69.4977 90.0463 69.0394C90.0864 68.5811 90.2313 68.1381 90.47 67.7448ZM20.6674 46.0097L20.5958 46.0034L26.3574 60.2849C25.6503 76.6135 33.4242 60.9032 48.9275 62.2595C64.4307 63.6159 69.6086 82.3102 71.7477 66.1068L79.9646 48.1296C80.2854 40.8768 75.0936 39.9113 74.0476 39.8197L55.3627 38.185C51.7197 37.8732 48.2076 36.6783 45.1303 34.7037C42.053 32.7292 39.5033 30.0344 37.7019 26.8527C37.5645 26.6122 37.3646 26.4133 37.1235 26.277C36.8824 26.1407 36.6089 26.0721 36.332 26.0784C36.0551 26.0847 35.785 26.1657 35.5504 26.3128C35.3157 26.4599 35.1251 26.6677 34.9988 26.9142L34.4207 27.9992C32.8469 31.0715 30.1511 33.4203 26.8923 34.5586C26.7939 34.5835 26.6908 34.6142 26.5831 34.6508C26.473 34.6892 26.37 34.72 26.2739 34.7429C24.8417 35.336 21.4427 37.1843 20.8423 42.6841L20.7493 44.464L20.6674 46.0097Z" fill="url(#paint8_radial_38_1208)"/>
<path fill-rule="evenodd" clip-rule="evenodd" d="M90.47 67.7448C91.9448 65.2729 92.8357 62.4969 93.0748 59.6284C93.312 56.9169 92.9744 54.3214 92.1811 51.915L92.2123 51.9177C91.8502 50.8374 91.3904 49.7923 90.8385 48.7955L90.8274 48.7788C89.1007 45.5469 88.3521 41.8823 88.6728 38.2321L88.6783 38.1699C89.1225 33.0921 87.5314 28.0459 84.2551 24.1413C80.9787 20.2366 76.2854 17.7935 71.2077 17.3492C70.1492 17.2566 69.1908 16.7022 68.6797 15.7666C67.121 13.1406 64.9598 10.9232 62.3748 9.2974C59.7898 7.67161 56.8551 6.68415 53.8131 6.41658C50.7708 6.15185 47.7092 6.6147 44.8811 7.7669C42.0531 8.9191 39.5397 10.7276 37.5487 13.043C36.8884 13.8134 35.8428 14.2552 34.7843 14.1626L34.2919 14.1258C29.2892 13.8174 24.364 15.4755 20.5664 18.7467C16.7688 22.0178 14.3994 26.6431 13.9634 31.6363L13.9582 31.6954C13.6396 35.3378 12.2679 38.8253 10.0049 41.7077L9.98745 41.7282C7.6507 44.6794 6.23209 48.252 5.90773 52.0023C5.64572 54.9971 6.10769 57.82 7.06356 60.4477C7.23072 60.8769 7.29678 61.3389 7.25663 61.7978C7.21649 62.2567 7.07121 62.7001 6.83206 63.0938C5.38271 65.5335 4.49633 68.266 4.23761 71.0919C3.33336 81.4274 10.9466 90.5005 21.2821 91.4047L71.0918 95.7625C81.4273 96.6667 90.5004 89.0535 91.4046 78.718C91.6411 75.8891 91.2428 73.0431 90.2387 70.3878C90.072 69.9591 90.0062 69.4977 90.0463 69.0394C90.0864 68.5811 90.2313 68.1381 90.47 67.7448ZM20.6674 46.0097L20.5958 46.0034L26.3574 60.2849C25.6503 76.6135 33.4242 60.9032 48.9275 62.2595C64.4307 63.6159 69.6086 82.3102 71.7477 66.1068L79.9646 48.1296C80.2854 40.8768 75.0936 39.9113 74.0476 39.8197L55.3627 38.185C51.7197 37.8732 48.2076 36.6783 45.1303 34.7037C42.053 32.7292 39.5033 30.0344 37.7019 26.8527C37.5645 26.6122 37.3646 26.4133 37.1235 26.277C36.8824 26.1407 36.6089 26.0721 36.332 26.0784C36.0551 26.0847 35.785 26.1657 35.5504 26.3128C35.3157 26.4599 35.1251 26.6677 34.9988 26.9142L34.4207 27.9992C32.8469 31.0715 30.1511 33.4203 26.8923 34.5586C26.7939 34.5835 26.6908 34.6142 26.5831 34.6508C26.473 34.6892 26.37 34.72 26.2739 34.7429C24.8417 35.336 21.4427 37.1843 20.8423 42.6841L20.7493 44.464L20.6674 46.0097Z" fill="url(#paint9_radial_38_1208)"/>
<path fill-rule="evenodd" clip-rule="evenodd" d="M90.47 67.7448C91.9448 65.2729 92.8357 62.4969 93.0748 59.6284C93.312 56.9169 92.9744 54.3214 92.1811 51.915L92.2123 51.9177C91.8502 50.8374 91.3904 49.7923 90.8385 48.7955L90.8274 48.7788C89.1007 45.5469 88.3521 41.8823 88.6728 38.2321L88.6783 38.1699C89.1225 33.0921 87.5314 28.0459 84.2551 24.1413C80.9787 20.2366 76.2854 17.7935 71.2077 17.3492C70.1492 17.2566 69.1908 16.7022 68.6797 15.7666C67.121 13.1406 64.9598 10.9232 62.3748 9.2974C59.7898 7.67161 56.8551 6.68415 53.8131 6.41658C50.7708 6.15185 47.7092 6.6147 44.8811 7.7669C42.0531 8.9191 39.5397 10.7276 37.5487 13.043C36.8884 13.8134 35.8428 14.2552 34.7843 14.1626L34.2919 14.1258C29.2892 13.8174 24.364 15.4755 20.5664 18.7467C16.7688 22.0178 14.3994 26.6431 13.9634 31.6363L13.9582 31.6954C13.6396 35.3378 12.2679 38.8253 10.0049 41.7077L9.98745 41.7282C7.6507 44.6794 6.23209 48.252 5.90773 52.0023C5.64572 54.9971 6.10769 57.82 7.06356 60.4477C7.23072 60.8769 7.29678 61.3389 7.25663 61.7978C7.21649 62.2567 7.07121 62.7001 6.83206 63.0938C5.38271 65.5335 4.49633 68.266 4.23761 71.0919C3.33336 81.4274 10.9466 90.5005 21.2821 91.4047L71.0918 95.7625C81.4273 96.6667 90.5004 89.0535 91.4046 78.718C91.6411 75.8891 91.2428 73.0431 90.2387 70.3878C90.072 69.9591 90.0062 69.4977 90.0463 69.0394C90.0864 68.5811 90.2313 68.1381 90.47 67.7448ZM20.6674 46.0097L20.5958 46.0034L26.3574 60.2849C25.6503 76.6135 33.4242 60.9032 48.9275 62.2595C64.4307 63.6159 69.6086 82.3102 71.7477 66.1068L79.9646 48.1296C80.2854 40.8768 75.0936 39.9113 74.0476 39.8197L55.3627 38.185C51.7197 37.8732 48.2076 36.6783 45.1303 34.7037C42.053 32.7292 39.5033 30.0344 37.7019 26.8527C37.5645 26.6122 37.3646 26.4133 37.1235 26.277C36.8824 26.1407 36.6089 26.0721 36.332 26.0784C36.0551 26.0847 35.785 26.1657 35.5504 26.3128C35.3157 26.4599 35.1251 26.6677 34.9988 26.9142L34.4207 27.9992C32.8469 31.0715 30.1511 33.4203 26.8923 34.5586C26.7939 34.5835 26.6908 34.6142 26.5831 34.6508C26.473 34.6892 26.37 34.72 26.2739 34.7429C24.8417 35.336 21.4427 37.1843 20.8423 42.6841L20.7493 44.464L20.6674 46.0097Z" fill="url(#paint10_radial_38_1208)"/>
</g>
<g filter="url(#filter1_i_38_1208)">
<path d="M21.4693 62.8746C23.9462 63.0913 26.4078 62.3152 28.3125 60.717C30.2172 59.1188 31.409 56.8293 31.6257 54.3524C31.8424 51.8755 31.0663 49.4139 29.468 47.5092C27.8698 45.6045 25.5804 44.4127 23.1035 44.196C20.6265 43.9793 18.1649 44.7554 16.2602 46.3537C14.3555 47.9519 13.1637 50.2413 12.947 52.7182C12.7303 55.1952 13.5065 57.6568 15.1047 59.5615C16.7029 61.4661 18.9923 62.6579 21.4693 62.8746Z" fill="url(#paint11_linear_38_1208)"/>
</g>
<g filter="url(#filter2_i_38_1208)">
<path d="M76.6834 67.7052C79.1604 67.9219 81.6219 67.1458 83.5266 65.5476C85.4313 63.9493 86.6231 61.6599 86.8398 59.183C87.0565 56.706 86.2804 54.2444 84.6822 52.3398C83.0839 50.4351 80.7945 49.2433 78.3176 49.0266C75.8407 48.8099 73.3791 49.586 71.4744 51.1842C69.5697 52.7824 68.3779 55.0719 68.1612 57.5488C67.9445 60.0257 68.7206 62.4873 70.3188 64.392C71.9171 66.2967 74.2065 67.4885 76.6834 67.7052Z" fill="url(#paint12_radial_38_1208)"/>
<path d="M76.6834 67.7052C79.1604 67.9219 81.6219 67.1458 83.5266 65.5476C85.4313 63.9493 86.6231 61.6599 86.8398 59.183C87.0565 56.706 86.2804 54.2444 84.6822 52.3398C83.0839 50.4351 80.7945 49.2433 78.3176 49.0266C75.8407 48.8099 73.3791 49.586 71.4744 51.1842C69.5697 52.7824 68.3779 55.0719 68.1612 57.5488C67.9445 60.0257 68.7206 62.4873 70.3188 64.392C71.9171 66.2967 74.2065 67.4885 76.6834 67.7052Z" fill="url(#paint13_radial_38_1208)"/>
</g>
<g filter="url(#filter3_f_38_1208)">
<path d="M76.955 64.6016C78.6088 64.7463 80.2523 64.2281 81.524 63.161C82.7957 62.0939 83.5914 60.5654 83.7361 58.9116C83.8808 57.2578 83.3626 55.6143 82.2955 54.3426C81.2284 53.0709 79.6998 52.2752 78.0461 52.1305C76.3923 51.9858 74.7488 52.504 73.4771 53.5711C72.2054 54.6382 71.4097 56.1667 71.265 57.8205C71.1203 59.4743 71.6385 61.1178 72.7056 62.3895C73.7727 63.6612 75.3012 64.4569 76.955 64.6016Z" fill="#F6BCA5"/>
<path d="M76.955 64.6016C78.6088 64.7463 80.2523 64.2281 81.524 63.161C82.7957 62.0939 83.5914 60.5654 83.7361 58.9116C83.8808 57.2578 83.3626 55.6143 82.2955 54.3426C81.2284 53.0709 79.6998 52.2752 78.0461 52.1305C76.3923 51.9858 74.7488 52.504 73.4771 53.5711C72.2054 54.6382 71.4097 56.1667 71.265 57.8205C71.1203 59.4743 71.6385 61.1178 72.7056 62.3895C73.7727 63.6612 75.3012 64.4569 76.955 64.6016Z" fill="url(#paint14_radial_38_1208)"/>
</g>
<g filter="url(#filter4_f_38_1208)">
<path d="M21.8529 59.7808C23.5067 59.9255 25.1502 59.4073 26.4219 58.3402C27.6936 57.2731 28.4894 55.7446 28.634 54.0908C28.7787 52.437 28.2605 50.7935 27.1934 49.5218C26.1264 48.2501 24.5978 47.4544 22.944 47.3097C21.2903 47.165 19.6467 47.6832 18.375 48.7503C17.1033 49.8174 16.3076 51.3459 16.1629 52.9997C16.0182 54.6535 16.5364 56.297 17.6035 57.5687C18.6706 58.8404 20.1992 59.6361 21.8529 59.7808Z" fill="#C58C80"/>
<path d="M21.8529 59.7808C23.5067 59.9255 25.1502 59.4073 26.4219 58.3402C27.6936 57.2731 28.4894 55.7446 28.634 54.0908C28.7787 52.437 28.2605 50.7935 27.1934 49.5218C26.1264 48.2501 24.5978 47.4544 22.944 47.3097C21.2903 47.165 19.6467 47.6832 18.375 48.7503C17.1033 49.8174 16.3076 51.3459 16.1629 52.9997C16.0182 54.6535 16.5364 56.297 17.6035 57.5687C18.6706 58.8404 20.1992 59.6361 21.8529 59.7808Z" fill="url(#paint15_radial_38_1208)"/>
</g>
<g filter="url(#filter5_i_38_1208)">
<path d="M20.5958 46.0036L20.6674 46.0099L20.7431 44.4637L20.8392 42.6841C21.4396 37.1842 24.8386 35.3359 26.2707 34.7429C26.3689 34.7201 26.472 34.6894 26.5799 34.6507C26.6898 34.6143 26.7929 34.5836 26.8892 34.5586C30.148 33.4202 32.8438 31.0714 34.4176 27.9991L34.9925 26.9139C35.1189 26.6674 35.3094 26.4596 35.5441 26.3125C35.7788 26.1654 36.0489 26.0844 36.3258 26.0781C36.6027 26.0718 36.8761 26.1404 37.1173 26.2767C37.3584 26.413 37.5582 26.6119 37.6957 26.8523C39.4974 30.0345 42.0475 32.7296 45.1254 34.7043C48.2032 36.6789 51.716 37.8736 55.3596 38.185L74.0475 39.82C75.0935 39.9115 80.2854 40.877 79.9646 48.1298L77.7162 65.9046C75.5771 82.1079 61.9199 91.9206 46.4135 90.564C30.9102 89.2076 19.1613 77.1722 19.8684 60.8436L20.5958 46.0036Z" fill="url(#paint16_radial_38_1208)"/>
<path d="M20.5958 46.0036L20.6674 46.0099L20.7431 44.4637L20.8392 42.6841C21.4396 37.1842 24.8386 35.3359 26.2707 34.7429C26.3689 34.7201 26.472 34.6894 26.5799 34.6507C26.6898 34.6143 26.7929 34.5836 26.8892 34.5586C30.148 33.4202 32.8438 31.0714 34.4176 27.9991L34.9925 26.9139C35.1189 26.6674 35.3094 26.4596 35.5441 26.3125C35.7788 26.1654 36.0489 26.0844 36.3258 26.0781C36.6027 26.0718 36.8761 26.1404 37.1173 26.2767C37.3584 26.413 37.5582 26.6119 37.6957 26.8523C39.4974 30.0345 42.0475 32.7296 45.1254 34.7043C48.2032 36.6789 51.716 37.8736 55.3596 38.185L74.0475 39.82C75.0935 39.9115 80.2854 40.877 79.9646 48.1298L77.7162 65.9046C75.5771 82.1079 61.9199 91.9206 46.4135 90.564C30.9102 89.2076 19.1613 77.1722 19.8684 60.8436L20.5958 46.0036Z" fill="url(#paint17_radial_38_1208)"/>
<path d="M20.5958 46.0036L20.6674 46.0099L20.7431 44.4637L20.8392 42.6841C21.4396 37.1842 24.8386 35.3359 26.2707 34.7429C26.3689 34.7201 26.472 34.6894 26.5799 34.6507C26.6898 34.6143 26.7929 34.5836 26.8892 34.5586C30.148 33.4202 32.8438 31.0714 34.4176 27.9991L34.9925 26.9139C35.1189 26.6674 35.3094 26.4596 35.5441 26.3125C35.7788 26.1654 36.0489 26.0844 36.3258 26.0781C36.6027 26.0718 36.8761 26.1404 37.1173 26.2767C37.3584 26.413 37.5582 26.6119 37.6957 26.8523C39.4974 30.0345 42.0475 32.7296 45.1254 34.7043C48.2032 36.6789 51.716 37.8736 55.3596 38.185L74.0475 39.82C75.0935 39.9115 80.2854 40.877 79.9646 48.1298L77.7162 65.9046C75.5771 82.1079 61.9199 91.9206 46.4135 90.564C30.9102 89.2076 19.1613 77.1722 19.8684 60.8436L20.5958 46.0036Z" fill="url(#paint18_radial_38_1208)"/>
<path d="M20.5958 46.0036L20.6674 46.0099L20.7431 44.4637L20.8392 42.6841C21.4396 37.1842 24.8386 35.3359 26.2707 34.7429C26.3689 34.7201 26.472 34.6894 26.5799 34.6507C26.6898 34.6143 26.7929 34.5836 26.8892 34.5586C30.148 33.4202 32.8438 31.0714 34.4176 27.9991L34.9925 26.9139C35.1189 26.6674 35.3094 26.4596 35.5441 26.3125C35.7788 26.1654 36.0489 26.0844 36.3258 26.0781C36.6027 26.0718 36.8761 26.1404 37.1173 26.2767C37.3584 26.413 37.5582 26.6119 37.6957 26.8523C39.4974 30.0345 42.0475 32.7296 45.1254 34.7043C48.2032 36.6789 51.716 37.8736 55.3596 38.185L74.0475 39.82C75.0935 39.9115 80.2854 40.877 79.9646 48.1298L77.7162 65.9046C75.5771 82.1079 61.9199 91.9206 46.4135 90.564C30.9102 89.2076 19.1613 77.1722 19.8684 60.8436L20.5958 46.0036Z" fill="url(#paint19_radial_38_1208)"/>
<path d="M20.5958 46.0036L20.6674 46.0099L20.7431 44.4637L20.8392 42.6841C21.4396 37.1842 24.8386 35.3359 26.2707 34.7429C26.3689 34.7201 26.472 34.6894 26.5799 34.6507C26.6898 34.6143 26.7929 34.5836 26.8892 34.5586C30.148 33.4202 32.8438 31.0714 34.4176 27.9991L34.9925 26.9139C35.1189 26.6674 35.3094 26.4596 35.5441 26.3125C35.7788 26.1654 36.0489 26.0844 36.3258 26.0781C36.6027 26.0718 36.8761 26.1404 37.1173 26.2767C37.3584 26.413 37.5582 26.6119 37.6957 26.8523C39.4974 30.0345 42.0475 32.7296 45.1254 34.7043C48.2032 36.6789 51.716 37.8736 55.3596 38.185L74.0475 39.82C75.0935 39.9115 80.2854 40.877 79.9646 48.1298L77.7162 65.9046C75.5771 82.1079 61.9199 91.9206 46.4135 90.564C30.9102 89.2076 19.1613 77.1722 19.8684 60.8436L20.5958 46.0036Z" fill="url(#paint20_radial_38_1208)"/>
<path d="M20.5958 46.0036L20.6674 46.0099L20.7431 44.4637L20.8392 42.6841C21.4396 37.1842 24.8386 35.3359 26.2707 34.7429C26.3689 34.7201 26.472 34.6894 26.5799 34.6507C26.6898 34.6143 26.7929 34.5836 26.8892 34.5586C30.148 33.4202 32.8438 31.0714 34.4176 27.9991L34.9925 26.9139C35.1189 26.6674 35.3094 26.4596 35.5441 26.3125C35.7788 26.1654 36.0489 26.0844 36.3258 26.0781C36.6027 26.0718 36.8761 26.1404 37.1173 26.2767C37.3584 26.413 37.5582 26.6119 37.6957 26.8523C39.4974 30.0345 42.0475 32.7296 45.1254 34.7043C48.2032 36.6789 51.716 37.8736 55.3596 38.185L74.0475 39.82C75.0935 39.9115 80.2854 40.877 79.9646 48.1298L77.7162 65.9046C75.5771 82.1079 61.9199 91.9206 46.4135 90.564C30.9102 89.2076 19.1613 77.1722 19.8684 60.8436L20.5958 46.0036Z" fill="url(#paint21_radial_38_1208)"/>
<path d="M20.5958 46.0036L20.6674 46.0099L20.7431 44.4637L20.8392 42.6841C21.4396 37.1842 24.8386 35.3359 26.2707 34.7429C26.3689 34.7201 26.472 34.6894 26.5799 34.6507C26.6898 34.6143 26.7929 34.5836 26.8892 34.5586C30.148 33.4202 32.8438 31.0714 34.4176 27.9991L34.9925 26.9139C35.1189 26.6674 35.3094 26.4596 35.5441 26.3125C35.7788 26.1654 36.0489 26.0844 36.3258 26.0781C36.6027 26.0718 36.8761 26.1404 37.1173 26.2767C37.3584 26.413 37.5582 26.6119 37.6957 26.8523C39.4974 30.0345 42.0475 32.7296 45.1254 34.7043C48.2032 36.6789 51.716 37.8736 55.3596 38.185L74.0475 39.82C75.0935 39.9115 80.2854 40.877 79.9646 48.1298L77.7162 65.9046C75.5771 82.1079 61.9199 91.9206 46.4135 90.564C30.9102 89.2076 19.1613 77.1722 19.8684 60.8436L20.5958 46.0036Z" fill="url(#paint22_radial_38_1208)"/>
</g>
<path d="M20.5958 46.0036L20.6674 46.0099L20.7431 44.4637L20.8392 42.6841C21.4396 37.1842 24.8386 35.3359 26.2707 34.7429C26.3689 34.7201 26.472 34.6894 26.5799 34.6507C26.6898 34.6143 26.7929 34.5836 26.8892 34.5586C30.148 33.4202 32.8438 31.0714 34.4176 27.9991L34.9925 26.9139C35.1189 26.6674 35.3094 26.4596 35.5441 26.3125C35.7788 26.1654 36.0489 26.0844 36.3258 26.0781C36.6027 26.0718 36.8761 26.1404 37.1173 26.2767C37.3584 26.413 37.5582 26.6119 37.6957 26.8523C39.4974 30.0345 42.0475 32.7296 45.1254 34.7043C48.2032 36.6789 51.716 37.8736 55.3596 38.185L74.0475 39.82C75.0935 39.9115 80.2854 40.877 79.9646 48.1298L77.7162 65.9046C75.5771 82.1079 61.9199 91.9206 46.4135 90.564C30.9102 89.2076 19.1613 77.1722 19.8684 60.8436L20.5958 46.0036Z" fill="url(#paint23_radial_38_1208)"/>
<g filter="url(#filter6_f_38_1208)">
<path d="M47.3168 54.423L42.4874 63.9445C42.3 64.4025 42.2235 64.8983 42.2641 65.3915C42.3047 65.8847 42.4612 66.3613 42.721 66.7825C42.9808 67.2037 43.3364 67.5575 43.7589 67.8152C44.1814 68.0728 44.6588 68.227 45.1522 68.2651L49.716 68.6644C51.8578 68.8518 53.548 66.923 53.094 64.8693L50.8754 54.7312C50.4032 52.4909 48.2023 52.2983 47.3171 54.4198" fill="#D19590"/>
</g>
<g filter="url(#filter7_f_38_1208)">
<path d="M47.4461 53.6254L43.5008 63.2243C43.3134 63.6823 43.2369 64.1781 43.2775 64.6713C43.3181 65.1645 43.4747 65.6411 43.7344 66.0623C43.9942 66.4835 44.3499 66.8373 44.7723 67.095C45.1948 67.3526 45.6722 67.5068 46.1656 67.5449L50.7294 67.9442C52.8712 68.1316 54.5614 66.2028 54.1043 64.1489L51.8857 54.0107C51.4135 51.7704 48.3313 51.5038 47.4461 53.6254Z" fill="#F1C4B2"/>
<path d="M47.4461 53.6254L43.5008 63.2243C43.3134 63.6823 43.2369 64.1781 43.2775 64.6713C43.3181 65.1645 43.4747 65.6411 43.7344 66.0623C43.9942 66.4835 44.3499 66.8373 44.7723 67.095C45.1948 67.3526 45.6722 67.5068 46.1656 67.5449L50.7294 67.9442C52.8712 68.1316 54.5614 66.2028 54.1043 64.1489L51.8857 54.0107C51.4135 51.7704 48.3313 51.5038 47.4461 53.6254Z" fill="url(#paint24_radial_38_1208)"/>
<path d="M47.4461 53.6254L43.5008 63.2243C43.3134 63.6823 43.2369 64.1781 43.2775 64.6713C43.3181 65.1645 43.4747 65.6411 43.7344 66.0623C43.9942 66.4835 44.3499 66.8373 44.7723 67.095C45.1948 67.3526 45.6722 67.5068 46.1656 67.5449L50.7294 67.9442C52.8712 68.1316 54.5614 66.2028 54.1043 64.1489L51.8857 54.0107C51.4135 51.7704 48.3313 51.5038 47.4461 53.6254Z" fill="url(#paint25_linear_38_1208)"/>
<path d="M47.4461 53.6254L43.5008 63.2243C43.3134 63.6823 43.2369 64.1781 43.2775 64.6713C43.3181 65.1645 43.4747 65.6411 43.7344 66.0623C43.9942 66.4835 44.3499 66.8373 44.7723 67.095C45.1948 67.3526 45.6722 67.5068 46.1656 67.5449L50.7294 67.9442C52.8712 68.1316 54.5614 66.2028 54.1043 64.1489L51.8857 54.0107C51.4135 51.7704 48.3313 51.5038 47.4461 53.6254Z" fill="url(#paint26_linear_38_1208)"/>
<path d="M47.4461 53.6254L43.5008 63.2243C43.3134 63.6823 43.2369 64.1781 43.2775 64.6713C43.3181 65.1645 43.4747 65.6411 43.7344 66.0623C43.9942 66.4835 44.3499 66.8373 44.7723 67.095C45.1948 67.3526 45.6722 67.5068 46.1656 67.5449L50.7294 67.9442C52.8712 68.1316 54.5614 66.2028 54.1043 64.1489L51.8857 54.0107C51.4135 51.7704 48.3313 51.5038 47.4461 53.6254Z" fill="url(#paint27_radial_38_1208)"/>
</g>
<path d="M47.4461 53.6254L43.5008 63.2243C43.3134 63.6823 43.2369 64.1781 43.2775 64.6713C43.3181 65.1645 43.4747 65.6411 43.7344 66.0623C43.9942 66.4835 44.3499 66.8373 44.7723 67.095C45.1948 67.3526 45.6722 67.5068 46.1656 67.5449L50.7294 67.9442C52.8712 68.1316 54.5614 66.2028 54.1043 64.1489L51.8857 54.0107C51.4135 51.7704 48.3313 51.5038 47.4461 53.6254Z" fill="url(#paint28_linear_38_1208)"/>
<path d="M47.4461 53.6254L43.5008 63.2243C43.3134 63.6823 43.2369 64.1781 43.2775 64.6713C43.3181 65.1645 43.4747 65.6411 43.7344 66.0623C43.9942 66.4835 44.3499 66.8373 44.7723 67.095C45.1948 67.3526 45.6722 67.5068 46.1656 67.5449L50.7294 67.9442C52.8712 68.1316 54.5614 66.2028 54.1043 64.1489L51.8857 54.0107C51.4135 51.7704 48.3313 51.5038 47.4461 53.6254Z" fill="url(#paint29_radial_38_1208)"/>
<path d="M40.0128 69.9616C39.8149 69.8341 39.5802 69.7759 39.3456 69.7963C39.111 69.8166 38.8899 69.9143 38.7168 70.074C38.539 70.2257 38.4199 70.4349 38.3803 70.6652C38.3407 70.8956 38.383 71.1325 38.4999 71.3349C39.3882 73.0267 40.6873 74.4683 42.2779 75.5272C43.8685 76.5861 45.6996 77.2284 47.6032 77.3951C49.5068 77.5615 51.4216 77.2469 53.172 76.4803C54.9223 75.7137 56.452 74.5196 57.6206 73.0078C57.7682 72.825 57.8491 72.5973 57.8497 72.3623C57.8503 72.1273 57.7706 71.8992 57.6238 71.7156C57.48 71.5305 57.279 71.3981 57.0521 71.3391C56.8252 71.2801 56.5851 71.2978 56.3694 71.3894C53.7308 72.4876 50.8633 72.9228 48.0177 72.657C45.1694 72.4256 42.421 71.5002 40.0128 69.9616Z" fill="#88024E" stroke="url(#paint30_linear_38_1208)" stroke-width="0.3125"/>
<g filter="url(#filter8_i_38_1208)">
<path d="M56.4026 53.1913C58.1774 50.6175 60.7058 48.6805 65.7491 49.1217C67.9563 49.3148 70.0289 50.1141 71.7879 51.8082C73.2342 53.2052 72.8876 54.7998 71.6269 55.2981L68.2373 56.8586C64.562 55.3042 60.3924 54.7732 56.4026 53.1913Z" fill="#2D2B2E"/>
</g>
<g filter="url(#filter9_i_38_1208)">
<path d="M43.1438 52.0314C41.8397 49.1881 39.6861 46.8415 34.6459 46.4005C32.4356 46.2072 30.2557 46.6344 28.2323 47.9976C26.5592 49.1217 26.6267 50.7526 27.7849 51.4625L30.8488 53.5876C34.7414 52.6953 38.9399 52.8964 43.1438 52.0314Z" fill="#272528"/>
</g>
<g filter="url(#filter10_i_38_1208)">
<path d="M30.6638 43.8697L30.6376 43.8831C30.453 43.9728 30.2525 44.0253 30.0477 44.0376C29.8428 44.0498 29.6376 44.0216 29.4436 43.9545C29.0519 43.8191 28.73 43.5336 28.5488 43.1608C28.4591 42.9762 28.4066 42.7758 28.3943 42.5709C28.3821 42.3661 28.4103 42.1608 28.4774 41.9668C28.6128 41.5751 28.8983 41.2532 29.2711 41.072L29.2742 41.0723L29.281 41.0666L29.3005 41.0589L29.3561 41.0324C29.65 40.8937 29.9508 40.7702 30.2574 40.6627C30.8542 40.4389 31.6972 40.1613 32.7212 39.9309C34.7468 39.4745 37.5544 39.1868 40.4845 39.9733C40.6828 40.0265 40.8686 40.1182 41.0314 40.2432C41.1942 40.3682 41.3307 40.524 41.4333 40.7018C41.5359 40.8796 41.6024 41.0758 41.6292 41.2793C41.6559 41.4828 41.6423 41.6896 41.5891 41.8878C41.5359 42.086 41.4442 42.2718 41.3192 42.4346C41.1942 42.5974 41.0384 42.734 40.8606 42.8366C40.6828 42.9391 40.4866 43.0057 40.2831 43.0324C40.0796 43.0591 39.8728 43.0455 39.6746 42.9923C37.3975 42.379 35.1393 42.5893 33.408 42.9805C32.4678 43.1916 31.5492 43.4893 30.6638 43.8697Z" fill="#1E1E1E"/>
</g>
<g filter="url(#filter11_i_38_1208)">
<path fill-rule="evenodd" clip-rule="evenodd" d="M72.2756 44.8343C72.6113 45.0775 72.8366 45.4441 72.9019 45.8534C72.9673 46.2626 72.8674 46.6811 72.6242 47.0168C72.3811 47.3524 72.0145 47.5777 71.6052 47.6431C71.1959 47.7085 70.7774 47.6086 70.4418 47.3654L70.4183 47.3476L70.2997 47.2683C69.5297 46.7738 68.7178 46.348 67.8733 45.9957C66.2331 45.3095 64.0457 44.7103 61.6968 44.9189C61.4923 44.9369 61.2863 44.9144 61.0905 44.8527C60.8948 44.791 60.7131 44.6914 60.5558 44.5596C60.3986 44.4277 60.2688 44.2661 60.174 44.0841C60.0791 43.9021 60.0211 43.7032 60.0031 43.4987C59.9852 43.2942 60.0077 43.0883 60.0693 42.8925C60.131 42.6967 60.2306 42.515 60.3625 42.3578C60.4944 42.2005 60.6559 42.0708 60.838 41.9759C61.02 41.8811 61.2189 41.8231 61.4233 41.8051C64.4486 41.5396 67.1605 42.3102 69.0792 43.1117C70.1027 43.5402 71.0861 44.0588 72.0179 44.6612L72.1988 44.7806L72.249 44.8163L72.2668 44.8273L72.2756 44.8343Z" fill="#1E1E1E"/>
</g>
<path d="M64.0443 49.3158C67.833 49.6472 70.8076 52.5425 71.3701 56.1521C71.4091 56.393 71.3922 56.6397 71.3208 56.873C71.2494 57.1064 71.1254 57.3202 70.9583 57.498C70.7912 57.6759 70.5855 57.813 70.357 57.8987C70.1286 57.9845 69.8835 58.0167 69.6406 57.9928L56.6932 56.86C56.4968 56.8433 56.3065 56.7835 56.1358 56.685C55.9651 56.5865 55.8181 56.4517 55.7054 56.2901C55.5926 56.1284 55.5167 55.9439 55.4832 55.7497C55.4497 55.5555 55.4593 55.3563 55.5113 55.1662C56.0361 53.354 57.1738 51.7803 58.7301 50.7138C60.2864 49.6474 62.1649 49.1512 64.0443 49.3158Z" fill="white"/>
<path d="M62.7047 50.7884C63.5009 50.859 64.2701 51.1123 64.9526 51.5285C65.635 51.9447 66.2123 52.5126 66.6397 53.1881C67.067 53.8637 67.3328 54.6286 67.4165 55.4236C67.5002 56.2186 67.3995 57.0221 67.1222 57.7718L57.1167 56.8965C57.034 56.4404 57.0114 55.9754 57.0494 55.5135C57.1748 54.1378 57.8405 52.8679 58.9005 51.9822C59.9606 51.0964 61.3286 50.6671 62.7047 50.7884Z" fill="url(#paint31_radial_38_1208)"/>
<path d="M59.2848 55.709C59.4291 54.0591 60.8643 52.8577 62.5111 53.0018C64.1611 53.1461 65.3624 54.5813 65.2183 56.2281C65.1794 56.704 65.0251 57.1631 64.7688 57.5659L59.5201 57.1067C59.318 56.6703 59.2367 56.1876 59.2848 55.709Z" fill="black"/>
<g filter="url(#filter12_f_38_1208)">
<path d="M62.2287 51.8543C62.553 52.3783 61.7284 52.9116 60.7961 53.4919C59.861 54.0688 59.1701 54.4727 58.8427 53.9484C58.5186 53.4212 59.011 52.5264 59.9463 51.9463C60.8814 51.3694 61.9013 51.33 62.2287 51.8543Z" fill="#C7A7A3"/>
<path d="M62.2287 51.8543C62.553 52.3783 61.7284 52.9116 60.7961 53.4919C59.861 54.0688 59.1701 54.4727 58.8427 53.9484C58.5186 53.4212 59.011 52.5264 59.9463 51.9463C60.8814 51.3694 61.9013 51.33 62.2287 51.8543Z" fill="url(#paint32_radial_38_1208)"/>
</g>
<g filter="url(#filter13_f_38_1208)">
<path d="M66.9247 55.6905C66.8585 54.664 66.4712 53.6842 65.8177 52.8897L64.1632 54.4106L64.729 55.7965L66.9247 55.6905Z" fill="url(#paint33_linear_38_1208)"/>
</g>
<path d="M36.2878 46.8873C32.4992 46.5558 29.067 48.8906 27.8862 52.3477C27.806 52.5782 27.7798 52.824 27.8096 53.0662C27.8394 53.3084 27.9244 53.5405 28.0581 53.7447C28.1917 53.9488 28.3705 54.1196 28.5806 54.2437C28.7907 54.3678 29.0265 54.4421 29.2698 54.4607L42.2172 55.5935C42.4135 55.6111 42.6113 55.5853 42.7965 55.5179C42.9818 55.4506 43.1499 55.3433 43.289 55.2037C43.4282 55.0641 43.5349 54.8956 43.6017 54.7101C43.6684 54.5247 43.6935 54.3268 43.6753 54.1306C43.4708 52.2557 42.6229 50.5096 41.276 49.1896C39.929 47.8695 38.1664 47.0539 36.2878 46.8873Z" fill="white"/>
<path d="M37.3516 48.5704C36.555 48.5012 35.7531 48.6166 35.0084 48.9077C34.2636 49.1989 33.5961 49.6578 33.0576 50.2489C32.5191 50.84 32.1242 51.5474 31.9035 52.3159C31.6829 53.0845 31.6424 53.8936 31.7854 54.6804L41.794 55.556C41.9515 55.1181 42.059 54.6789 42.1004 54.2057C42.2116 52.83 41.7751 51.4661 40.8857 50.4107C39.9964 49.3553 38.7262 48.6939 37.3516 48.5704Z" fill="url(#paint34_radial_38_1208)"/>
<path d="M39.8619 54.0096C39.8972 53.62 39.8552 53.2273 39.7383 52.854C39.6213 52.4807 39.4318 52.1342 39.1805 51.8344C38.9292 51.5346 38.6211 51.2874 38.274 51.1071C37.9269 50.9267 37.5475 50.8168 37.1578 50.7835C36.7679 50.7482 36.375 50.7902 36.0014 50.9074C35.6279 51.0245 35.2813 51.2143 34.9814 51.4659C34.6815 51.7175 34.4344 52.026 34.2542 52.3735C34.074 52.721 33.9643 53.1007 33.9314 53.4907C33.8879 53.9888 33.9653 54.4661 34.1419 54.8863L39.3906 55.3455C39.6554 54.9457 39.8151 54.4868 39.8619 54.0096Z" fill="black"/>
<g filter="url(#filter14_f_38_1208)">
<path d="M41.6833 53.557C41.8298 51.8821 40.5669 50.6486 40.2292 50.2771L38.4128 51.7494L39.2565 53.9375L41.6833 53.557Z" fill="url(#paint35_linear_38_1208)"/>
</g>
<g filter="url(#filter15_f_38_1208)">
<path d="M36.0428 51.7059C37.1969 51.218 37.932 50.3483 37.6848 49.7633C37.4375 49.1783 36.3014 49.0995 35.1473 49.5874C33.9932 50.0752 33.258 50.9449 33.5053 51.53C33.7526 52.115 34.8887 52.1937 36.0428 51.7059Z" fill="#C7A7A3" fill-opacity="0.9"/>
<path d="M36.0428 51.7059C37.1969 51.218 37.932 50.3483 37.6848 49.7633C37.4375 49.1783 36.3014 49.0995 35.1473 49.5874C33.9932 50.0752 33.258 50.9449 33.5053 51.53C33.7526 52.115 34.8887 52.1937 36.0428 51.7059Z" fill="url(#paint36_radial_38_1208)"/>
</g>
<g filter="url(#filter16_f_38_1208)">
<path d="M61.9445 43.1278C63.8552 42.8369 68.4926 43.4717 71.4078 45.9696" stroke="#323233" stroke-width="1.25" stroke-linecap="round"/>
</g>
<g filter="url(#filter17_f_38_1208)">
<path d="M39.941 41.2027C38.1098 40.5845 33.4327 40.4043 30.128 42.3581" stroke="#323233" stroke-width="1.25" stroke-linecap="round"/>
</g>
<g filter="url(#filter18_if_38_1208)">
<path d="M23.1014 18.5826C26.69 15.3926 32.9011 15.9298 35.7291 16.701L37.3712 24.3922C35.9217 24.0364 34.5687 24.4419 33.3761 25.4166C30.1335 32.5047 20.8335 35.7566 16.5935 36.4961C16.4889 27.76 18.4311 22.7351 23.1014 18.5826Z" fill="#232121"/>
<path d="M23.1014 18.5826C26.69 15.3926 32.9011 15.9298 35.7291 16.701L37.3712 24.3922C35.9217 24.0364 34.5687 24.4419 33.3761 25.4166C30.1335 32.5047 20.8335 35.7566 16.5935 36.4961C16.4889 27.76 18.4311 22.7351 23.1014 18.5826Z" fill="url(#paint37_radial_38_1208)"/>
</g>
<g filter="url(#filter19_if_38_1208)">
<path d="M49.9363 10.3912C43.4884 8.36528 37.0123 14.4051 36.1176 16.7799C40.4221 37.8916 55.9682 38.113 71.3612 37.7533C80.5808 37.5372 81.2037 41.7827 81.8061 43.8618C83.803 21.0365 64.7707 15.055 50.0983 10.4399L49.9363 10.3912Z" fill="#2A2A2A"/>
<path d="M49.9363 10.3912C43.4884 8.36528 37.0123 14.4051 36.1176 16.7799C40.4221 37.8916 55.9682 38.113 71.3612 37.7533C80.5808 37.5372 81.2037 41.7827 81.8061 43.8618C83.803 21.0365 64.7707 15.055 50.0983 10.4399L49.9363 10.3912Z" fill="url(#paint38_radial_38_1208)"/>
<path d="M49.9363 10.3912C43.4884 8.36528 37.0123 14.4051 36.1176 16.7799C40.4221 37.8916 55.9682 38.113 71.3612 37.7533C80.5808 37.5372 81.2037 41.7827 81.8061 43.8618C83.803 21.0365 64.7707 15.055 50.0983 10.4399L49.9363 10.3912Z" fill="url(#paint39_radial_38_1208)"/>
</g>
<g filter="url(#filter20_f_38_1208)">
<path d="M36.0248 16.4768C36.0353 17.8988 36.798 23.3077 38.3163 26.6778" stroke="url(#paint40_linear_38_1208)" stroke-width="0.625" stroke-linecap="round"/>
</g>
<g filter="url(#filter21_f_38_1208)">
<path d="M66.9122 32.7423L57.1663 33.6683C56.6119 33.7205 56.0527 33.6566 55.5243 33.4808C54.996 33.305 54.51 33.021 54.0975 32.647C53.6849 32.273 53.3548 31.8171 53.1281 31.3085C52.9015 30.7999 52.7832 30.2496 52.781 29.6927C52.7788 29.1359 52.8925 28.5847 53.1151 28.0742C53.3376 27.5638 53.6641 27.1053 54.0736 26.7279C54.4831 26.3506 54.9668 26.0627 55.4937 25.8826C56.0206 25.7026 56.5793 25.6342 57.1341 25.682L70.7197 26.8705C78.7546 27.5735 80.7048 35.9033 80.7896 38.6994L79.8786 37.71C78.2461 35.9381 76.226 34.5676 73.9761 33.7058C71.7263 32.844 69.3107 32.5144 66.9122 32.7423Z" fill="#4B4648"/>
</g>
<defs>
<filter id="filter0_i_38_1208" x="4.1647" y="4.00024" width="89.7658" height="91.8352" filterUnits="userSpaceOnUse" color-interpolation-filters="sRGB">
<feFlood flood-opacity="0" result="BackgroundImageFix"/>
<feBlend mode="normal" in="SourceGraphic" in2="BackgroundImageFix" result="shape"/>
<feColorMatrix in="SourceAlpha" type="matrix" values="0 0 0 0 0 0 0 0 0 0 0 0 0 0 0 0 0 0 127 0" result="hardAlpha"/>
<feOffset dx="0.78125" dy="-2.34375"/>
<feGaussianBlur stdDeviation="2.34375"/>
<feComposite in2="hardAlpha" operator="arithmetic" k2="-1" k3="1"/>
<feColorMatrix type="matrix" values="0 0 0 0 0.121569 0 0 0 0 0.0705882 0 0 0 0 0.164706 0 0 0 1 0"/>
<feBlend mode="normal" in2="shape" result="effect1_innerShadow_38_1208"/>
</filter>
<filter id="filter1_i_38_1208" x="12.9113" y="44.1604" width="19.2188" height="18.75" filterUnits="userSpaceOnUse" color-interpolation-filters="sRGB">
<feFlood flood-opacity="0" result="BackgroundImageFix"/>
<feBlend mode="normal" in="SourceGraphic" in2="BackgroundImageFix" result="shape"/>
<feColorMatrix in="SourceAlpha" type="matrix" values="0 0 0 0 0 0 0 0 0 0 0 0 0 0 0 0 0 0 127 0" result="hardAlpha"/>
<feOffset dx="0.46875"/>
<feGaussianBlur stdDeviation="0.78125"/>
<feComposite in2="hardAlpha" operator="arithmetic" k2="-1" k3="1"/>
<feColorMatrix type="matrix" values="0 0 0 0 0.894118 0 0 0 0 0.682353 0 0 0 0 0.6 0 0 0 1 0"/>
<feBlend mode="normal" in2="shape" result="effect1_innerShadow_38_1208"/>
</filter>
<filter id="filter2_i_38_1208" x="68.1255" y="48.2097" width="18.7501" height="19.5312" filterUnits="userSpaceOnUse" color-interpolation-filters="sRGB">
<feFlood flood-opacity="0" result="BackgroundImageFix"/>
<feBlend mode="normal" in="SourceGraphic" in2="BackgroundImageFix" result="shape"/>
<feColorMatrix in="SourceAlpha" type="matrix" values="0 0 0 0 0 0 0 0 0 0 0 0 0 0 0 0 0 0 127 0" result="hardAlpha"/>
<feOffset dy="-0.78125"/>
<feGaussianBlur stdDeviation="0.78125"/>
<feComposite in2="hardAlpha" operator="arithmetic" k2="-1" k3="1"/>
<feColorMatrix type="matrix" values="0 0 0 0 0.784314 0 0 0 0 0.572549 0 0 0 0 0.513726 0 0 0 1 0"/>
<feBlend mode="normal" in2="shape" result="effect1_innerShadow_38_1208"/>
</filter>
<filter id="filter3_f_38_1208" x="69.6786" y="50.5442" width="15.6438" height="15.6438" filterUnits="userSpaceOnUse" color-interpolation-filters="sRGB">
<feFlood flood-opacity="0" result="BackgroundImageFix"/>
<feBlend mode="normal" in="SourceGraphic" in2="BackgroundImageFix" result="shape"/>
<feGaussianBlur stdDeviation="0.78125" result="effect1_foregroundBlur_38_1208"/>
</filter>
<filter id="filter4_f_38_1208" x="14.8891" y="46.0359" width="15.0188" height="15.0188" filterUnits="userSpaceOnUse" color-interpolation-filters="sRGB">
<feFlood flood-opacity="0" result="BackgroundImageFix"/>
<feBlend mode="normal" in="SourceGraphic" in2="BackgroundImageFix" result="shape"/>
<feGaussianBlur stdDeviation="0.625" result="effect1_foregroundBlur_38_1208"/>
</filter>
<filter id="filter5_i_38_1208" x="19.8381" y="26.0776" width="60.1407" height="65.8611" filterUnits="userSpaceOnUse" color-interpolation-filters="sRGB">
<feFlood flood-opacity="0" result="BackgroundImageFix"/>
<feBlend mode="normal" in="SourceGraphic" in2="BackgroundImageFix" result="shape"/>
<feColorMatrix in="SourceAlpha" type="matrix" values="0 0 0 0 0 0 0 0 0 0 0 0 0 0 0 0 0 0 127 0" result="hardAlpha"/>
<feOffset dy="1.25"/>
<feGaussianBlur stdDeviation="0.9375"/>
<feComposite in2="hardAlpha" operator="arithmetic" k2="-1" k3="1"/>
<feColorMatrix type="matrix" values="0 0 0 0 0.807843 0 0 0 0 0.592157 0 0 0 0 0.52549 0 0 0 1 0"/>
<feBlend mode="normal" in2="shape" result="effect1_innerShadow_38_1208"/>
</filter>
<filter id="filter6_f_38_1208" x="40.691" y="51.3718" width="14.0397" height="18.8677" filterUnits="userSpaceOnUse" color-interpolation-filters="sRGB">
<feFlood flood-opacity="0" result="BackgroundImageFix"/>
<feBlend mode="normal" in="SourceGraphic" in2="BackgroundImageFix" result="shape"/>
<feGaussianBlur stdDeviation="0.78125" result="effect1_foregroundBlur_38_1208"/>
</filter>
<filter id="filter7_f_38_1208" x="42.4857" y="51.3921" width="12.4751" height="17.3459" filterUnits="userSpaceOnUse" color-interpolation-filters="sRGB">
<feFlood flood-opacity="0" result="BackgroundImageFix"/>
<feBlend mode="normal" in="SourceGraphic" in2="BackgroundImageFix" result="shape"/>
<feGaussianBlur stdDeviation="0.390625" result="effect1_foregroundBlur_38_1208"/>
</filter>
<filter id="filter8_i_38_1208" x="55.7776" y="49.0588" width="16.9538" height="7.7998" filterUnits="userSpaceOnUse" color-interpolation-filters="sRGB">
<feFlood flood-opacity="0" result="BackgroundImageFix"/>
<feBlend mode="normal" in="SourceGraphic" in2="BackgroundImageFix" result="shape"/>
<feColorMatrix in="SourceAlpha" type="matrix" values="0 0 0 0 0 0 0 0 0 0 0 0 0 0 0 0 0 0 127 0" result="hardAlpha"/>
<feOffset dx="-0.625"/>
<feGaussianBlur stdDeviation="0.625"/>
<feComposite in2="hardAlpha" operator="arithmetic" k2="-1" k3="1"/>
<feColorMatrix type="matrix" values="0 0 0 0 0.0941176 0 0 0 0 0.0666667 0 0 0 0 0.117647 0 0 0 1 0"/>
<feBlend mode="normal" in2="shape" result="effect1_innerShadow_38_1208"/>
</filter>
<filter id="filter9_i_38_1208" x="26.9421" y="46.3564" width="16.8267" height="7.2312" filterUnits="userSpaceOnUse" color-interpolation-filters="sRGB">
<feFlood flood-opacity="0" result="BackgroundImageFix"/>
<feBlend mode="normal" in="SourceGraphic" in2="BackgroundImageFix" result="shape"/>
<feColorMatrix in="SourceAlpha" type="matrix" values="0 0 0 0 0 0 0 0 0 0 0 0 0 0 0 0 0 0 127 0" result="hardAlpha"/>
<feOffset dx="0.625"/>
<feGaussianBlur stdDeviation="0.390625"/>
<feComposite in2="hardAlpha" operator="arithmetic" k2="-1" k3="1"/>
<feColorMatrix type="matrix" values="0 0 0 0 0.0862745 0 0 0 0 0.054902 0 0 0 0 0.113725 0 0 0 1 0"/>
<feBlend mode="normal" in2="shape" result="effect1_innerShadow_38_1208"/>
</filter>
<filter id="filter10_i_38_1208" x="28.3916" y="38.8567" width="13.8759" height="5.18359" filterUnits="userSpaceOnUse" color-interpolation-filters="sRGB">
<feFlood flood-opacity="0" result="BackgroundImageFix"/>
<feBlend mode="normal" in="SourceGraphic" in2="BackgroundImageFix" result="shape"/>
<feColorMatrix in="SourceAlpha" type="matrix" values="0 0 0 0 0 0 0 0 0 0 0 0 0 0 0 0 0 0 127 0" result="hardAlpha"/>
<feOffset dx="0.625" dy="-0.625"/>
<feGaussianBlur stdDeviation="0.46875"/>
<feComposite in2="hardAlpha" operator="arithmetic" k2="-1" k3="1"/>
<feColorMatrix type="matrix" values="0 0 0 0 0.0431373 0 0 0 0 0.0235294 0 0 0 0 0.0313726 0 0 0 1 0"/>
<feBlend mode="normal" in2="shape" result="effect1_innerShadow_38_1208"/>
</filter>
<filter id="filter11_i_38_1208" x="59.9972" y="41.1267" width="13.5493" height="6.53589" filterUnits="userSpaceOnUse" color-interpolation-filters="sRGB">
<feFlood flood-opacity="0" result="BackgroundImageFix"/>
<feBlend mode="normal" in="SourceGraphic" in2="BackgroundImageFix" result="shape"/>
<feColorMatrix in="SourceAlpha" type="matrix" values="0 0 0 0 0 0 0 0 0 0 0 0 0 0 0 0 0 0 127 0" result="hardAlpha"/>
<feOffset dx="0.625" dy="-0.625"/>
<feGaussianBlur stdDeviation="0.46875"/>
<feComposite in2="hardAlpha" operator="arithmetic" k2="-1" k3="1"/>
<feColorMatrix type="matrix" values="0 0 0 0 0.0431373 0 0 0 0 0.0235294 0 0 0 0 0.0313726 0 0 0 1 0"/>
<feBlend mode="normal" in2="shape" result="effect1_innerShadow_38_1208"/>
</filter>
<filter id="filter12_f_38_1208" x="58.4306" y="51.1733" width="4.18253" height="3.33057" filterUnits="userSpaceOnUse" color-interpolation-filters="sRGB">
<feFlood flood-opacity="0" result="BackgroundImageFix"/>
<feBlend mode="normal" in="SourceGraphic" in2="BackgroundImageFix" result="shape"/>
<feGaussianBlur stdDeviation="0.15625" result="effect1_foregroundBlur_38_1208"/>
</filter>
<filter id="filter13_f_38_1208" x="63.5382" y="52.2646" width="4.01144" height="4.15674" filterUnits="userSpaceOnUse" color-interpolation-filters="sRGB">
<feFlood flood-opacity="0" result="BackgroundImageFix"/>
<feBlend mode="normal" in="SourceGraphic" in2="BackgroundImageFix" result="shape"/>
<feGaussianBlur stdDeviation="0.3125" result="effect1_foregroundBlur_38_1208"/>
</filter>
<filter id="filter14_f_38_1208" x="37.7878" y="49.6521" width="4.53232" height="4.9104" filterUnits="userSpaceOnUse" color-interpolation-filters="sRGB">
<feFlood flood-opacity="0" result="BackgroundImageFix"/>
<feBlend mode="normal" in="SourceGraphic" in2="BackgroundImageFix" result="shape"/>
<feGaussianBlur stdDeviation="0.3125" result="effect1_foregroundBlur_38_1208"/>
</filter>
<filter id="filter15_f_38_1208" x="33.1449" y="48.9548" width="4.90021" height="3.38354" filterUnits="userSpaceOnUse" color-interpolation-filters="sRGB">
<feFlood flood-opacity="0" result="BackgroundImageFix"/>
<feBlend mode="normal" in="SourceGraphic" in2="BackgroundImageFix" result="shape"/>
<feGaussianBlur stdDeviation="0.15625" result="effect1_foregroundBlur_38_1208"/>
</filter>
<filter id="filter16_f_38_1208" x="60.0694" y="41.1875" width="13.2134" height="6.65723" filterUnits="userSpaceOnUse" color-interpolation-filters="sRGB">
<feFlood flood-opacity="0" result="BackgroundImageFix"/>
<feBlend mode="normal" in="SourceGraphic" in2="BackgroundImageFix" result="shape"/>
<feGaussianBlur stdDeviation="0.625" result="effect1_foregroundBlur_38_1208"/>
</filter>
<filter id="filter17_f_38_1208" x="28.2529" y="38.9045" width="13.5633" height="5.32861" filterUnits="userSpaceOnUse" color-interpolation-filters="sRGB">
<feFlood flood-opacity="0" result="BackgroundImageFix"/>
<feBlend mode="normal" in="SourceGraphic" in2="BackgroundImageFix" result="shape"/>
<feGaussianBlur stdDeviation="0.625" result="effect1_foregroundBlur_38_1208"/>
</filter>
<filter id="filter18_if_38_1208" x="14.2458" y="13.7673" width="25.4692" height="25.0725" filterUnits="userSpaceOnUse" color-interpolation-filters="sRGB">
<feFlood flood-opacity="0" result="BackgroundImageFix"/>
<feBlend mode="normal" in="SourceGraphic" in2="BackgroundImageFix" result="shape"/>
<feColorMatrix in="SourceAlpha" type="matrix" values="0 0 0 0 0 0 0 0 0 0 0 0 0 0 0 0 0 0 127 0" result="hardAlpha"/>
<feOffset dx="1.5625" dy="1.5625"/>
<feGaussianBlur stdDeviation="1.5625"/>
<feComposite in2="hardAlpha" operator="arithmetic" k2="-1" k3="1"/>
<feColorMatrix type="matrix" values="0 0 0 0 0.352941 0 0 0 0 0.341176 0 0 0 0 0.341176 0 0 0 1 0"/>
<feBlend mode="normal" in2="shape" result="effect1_innerShadow_38_1208"/>
<feGaussianBlur stdDeviation="1.17188" result="effect2_foregroundBlur_38_1208"/>
</filter>
<filter id="filter19_if_38_1208" x="33.7738" y="7.63867" width="50.5211" height="38.5669" filterUnits="userSpaceOnUse" color-interpolation-filters="sRGB">
<feFlood flood-opacity="0" result="BackgroundImageFix"/>
<feBlend mode="normal" in="SourceGraphic" in2="BackgroundImageFix" result="shape"/>
<feColorMatrix in="SourceAlpha" type="matrix" values="0 0 0 0 0 0 0 0 0 0 0 0 0 0 0 0 0 0 127 0" result="hardAlpha"/>
<feOffset dx="-0.9375" dy="0.625"/>
<feGaussianBlur stdDeviation="1.25"/>
<feComposite in2="hardAlpha" operator="arithmetic" k2="-1" k3="1"/>
<feColorMatrix type="matrix" values="0 0 0 0 0.345098 0 0 0 0 0.329412 0 0 0 0 0.333333 0 0 0 1 0"/>
<feBlend mode="normal" in2="shape" result="effect1_innerShadow_38_1208"/>
<feGaussianBlur stdDeviation="1.17188" result="effect2_foregroundBlur_38_1208"/>
</filter>
<filter id="filter20_f_38_1208" x="35.0873" y="15.5393" width="4.1666" height="12.0762" filterUnits="userSpaceOnUse" color-interpolation-filters="sRGB">
<feFlood flood-opacity="0" result="BackgroundImageFix"/>
<feBlend mode="normal" in="SourceGraphic" in2="BackgroundImageFix" result="shape"/>
<feGaussianBlur stdDeviation="0.3125" result="effect1_foregroundBlur_38_1208"/>
</filter>
<filter id="filter21_f_38_1208" x="47.3122" y="20.1985" width="38.9461" height="23.9697" filterUnits="userSpaceOnUse" color-interpolation-filters="sRGB">
<feFlood flood-opacity="0" result="BackgroundImageFix"/>
<feBlend mode="normal" in="SourceGraphic" in2="BackgroundImageFix" result="shape"/>
<feGaussianBlur stdDeviation="2.73438" result="effect1_foregroundBlur_38_1208"/>
</filter>
<linearGradient id="paint0_linear_38_1208" x1="80.2526" y1="17.9461" x2="34.3561" y2="87.6486" gradientUnits="userSpaceOnUse">
<stop stop-color="#393134"/>
<stop offset="1" stop-color="#1A1718"/>
</linearGradient>
<radialGradient id="paint1_radial_38_1208" cx="0" cy="0" r="1" gradientUnits="userSpaceOnUse" gradientTransform="translate(46.4629 70.2784) rotate(102.539) scale(26.7941 33.4712)">
<stop offset="0.591" stop-color="#171418"/>
<stop offset="1" stop-color="#171418" stop-opacity="0"/>
</radialGradient>
<radialGradient id="paint2_radial_38_1208" cx="0" cy="0" r="1" gradientUnits="userSpaceOnUse" gradientTransform="translate(29.9829 70.405) rotate(151.004) scale(20.2603 26.6204)">
<stop offset="0.258" stop-color="#181518"/>
<stop offset="1" stop-color="#181518" stop-opacity="0"/>
</radialGradient>
<radialGradient id="paint3_radial_38_1208" cx="0" cy="0" r="1" gradientUnits="userSpaceOnUse" gradientTransform="translate(21.2569 54.7378) rotate(132.405) scale(12.5396 9.62869)">
<stop offset="0.334" stop-color="#040101"/>
<stop offset="1" stop-color="#040101" stop-opacity="0"/>
</radialGradient>
<radialGradient id="paint4_radial_38_1208" cx="0" cy="0" r="1" gradientUnits="userSpaceOnUse" gradientTransform="translate(24.9131 43.1971) rotate(126.43) scale(14.4204 10.1579)">
<stop offset="0.321" stop-color="#040002"/>
<stop offset="1" stop-color="#040002" stop-opacity="0"/>
</radialGradient>
<radialGradient id="paint5_radial_38_1208" cx="0" cy="0" r="1" gradientUnits="userSpaceOnUse" gradientTransform="translate(33.1472 7.35144) rotate(67.272) scale(17.2108 23.8912)">
<stop stop-color="#474445"/>
<stop offset="1" stop-color="#474445" stop-opacity="0"/>
</radialGradient>
<radialGradient id="paint6_radial_38_1208" cx="0" cy="0" r="1" gradientUnits="userSpaceOnUse" gradientTransform="translate(86.3769 24.1634) rotate(139.998) scale(11.8768 16.5977)">
<stop stop-color="#4A4446"/>
<stop offset="1" stop-color="#4A4446" stop-opacity="0"/>
</radialGradient>
<radialGradient id="paint7_radial_38_1208" cx="0" cy="0" r="1" gradientUnits="userSpaceOnUse" gradientTransform="translate(93.4983 54.7876) rotate(168.779) scale(11.187 23.3297)">
<stop stop-color="#3B3638"/>
<stop offset="1" stop-color="#3B3638" stop-opacity="0"/>
</radialGradient>
<radialGradient id="paint8_radial_38_1208" cx="0" cy="0" r="1" gradientUnits="userSpaceOnUse" gradientTransform="translate(88.2597 74.3272) rotate(170.963) scale(16.9107 21.5417)">
<stop stop-color="#464444"/>
<stop offset="1" stop-color="#464444" stop-opacity="0"/>
</radialGradient>
<radialGradient id="paint9_radial_38_1208" cx="0" cy="0" r="1" gradientUnits="userSpaceOnUse" gradientTransform="translate(78.618 39.2471) rotate(-103.843) scale(16.3156 12.9047)">
<stop stop-color="#575455"/>
<stop offset="1" stop-color="#575455" stop-opacity="0"/>
</radialGradient>
<radialGradient id="paint10_radial_38_1208" cx="0" cy="0" r="1" gradientUnits="userSpaceOnUse" gradientTransform="translate(14.285 47.6429) rotate(10.988) scale(8.81034 14.2753)">
<stop stop-color="#413733"/>
<stop offset="1" stop-color="#413733" stop-opacity="0"/>
</radialGradient>
<linearGradient id="paint11_linear_38_1208" x1="12.9026" y1="53.2257" x2="30.0777" y2="54.7283" gradientUnits="userSpaceOnUse">
<stop stop-color="#CC9987"/>
<stop offset="1" stop-color="#AC7864"/>
</linearGradient>
<radialGradient id="paint12_radial_38_1208" cx="0" cy="0" r="1" gradientUnits="userSpaceOnUse" gradientTransform="translate(75.1559 63.8668) rotate(-43.1041) scale(15.9402 19.4623)">
<stop offset="0.444" stop-color="#E5B1A5"/>
<stop offset="0.944" stop-color="#FFD8C1"/>
</radialGradient>
<radialGradient id="paint13_radial_38_1208" cx="0" cy="0" r="1" gradientUnits="userSpaceOnUse" gradientTransform="translate(79.7643 48.7328) rotate(34.271) scale(8.78813 2.48454)">
<stop stop-color="#DBA98B"/>
<stop offset="1" stop-color="#DBA98B" stop-opacity="0"/>
</radialGradient>
<radialGradient id="paint14_radial_38_1208" cx="0" cy="0" r="1" gradientUnits="userSpaceOnUse" gradientTransform="translate(74.9155 58.7987) rotate(0.745854) scale(8.82137 6.89587)">
<stop offset="0.719" stop-color="#F4B89E" stop-opacity="0"/>
<stop offset="1" stop-color="#F5B99D"/>
</radialGradient>
<radialGradient id="paint15_radial_38_1208" cx="0" cy="0" r="1" gradientUnits="userSpaceOnUse" gradientTransform="translate(22.7783 53.5785) rotate(-175) scale(7.03125 5.54678)">
<stop offset="0.667" stop-color="#BC8272" stop-opacity="0"/>
<stop offset="1" stop-color="#BC8272"/>
</radialGradient>
<radialGradient id="paint16_radial_38_1208" cx="0" cy="0" r="1" gradientUnits="userSpaceOnUse" gradientTransform="translate(66.3483 54.2476) rotate(160.244) scale(41.7266 55.85)">
<stop stop-color="#FFD7BF"/>
<stop offset="1" stop-color="#D59F97"/>
</radialGradient>
<radialGradient id="paint17_radial_38_1208" cx="0" cy="0" r="1" gradientUnits="userSpaceOnUse" gradientTransform="translate(67.9335 62.3551) rotate(177.574) scale(20.3363 22.4477)">
<stop stop-color="#FFDEBF"/>
<stop offset="1" stop-color="#FFDEBF" stop-opacity="0"/>
</radialGradient>
<radialGradient id="paint18_radial_38_1208" cx="0" cy="0" r="1" gradientUnits="userSpaceOnUse" gradientTransform="translate(32.2207 94.128) rotate(-65.9588) scale(23.3478 29.624)">
<stop stop-color="#B87C92"/>
<stop offset="1" stop-color="#B87C92" stop-opacity="0"/>
</radialGradient>
<radialGradient id="paint19_radial_38_1208" cx="0" cy="0" r="1" gradientUnits="userSpaceOnUse" gradientTransform="translate(52.8077 53.9789) rotate(102.761) scale(39.2175 45.3956)">
<stop offset="0.673" stop-color="#B47896" stop-opacity="0"/>
<stop offset="1" stop-color="#B47896"/>
</radialGradient>
<radialGradient id="paint20_radial_38_1208" cx="0" cy="0" r="1" gradientUnits="userSpaceOnUse" gradientTransform="translate(59.3866 63.7605) rotate(173.897) scale(41.0019 70.5925)">
<stop offset="0.795" stop-color="#E2A895" stop-opacity="0"/>
<stop offset="1" stop-color="#E2A895"/>
</radialGradient>
<radialGradient id="paint21_radial_38_1208" cx="0" cy="0" r="1" gradientUnits="userSpaceOnUse" gradientTransform="translate(63.3231 51.5361) rotate(-85) scale(6.70472 8.22853)">
<stop stop-color="#F6BAA9"/>
<stop offset="1" stop-color="#F6BAA9" stop-opacity="0"/>
</radialGradient>
<radialGradient id="paint22_radial_38_1208" cx="0" cy="0" r="1" gradientUnits="userSpaceOnUse" gradientTransform="translate(38.0333 47.9841) rotate(-85) scale(7.64709 8.76406)">
<stop stop-color="#D09790"/>
<stop offset="1" stop-color="#D09790" stop-opacity="0"/>
</radialGradient>
<radialGradient id="paint23_radial_38_1208" cx="0" cy="0" r="1" gradientUnits="userSpaceOnUse" gradientTransform="translate(78.7871 61.5878) rotate(-175) scale(7.48844 37.5537)">
<stop stop-color="#FFD8BC"/>
<stop offset="1" stop-color="#FFD8BC" stop-opacity="0"/>
</radialGradient>
<radialGradient id="paint24_radial_38_1208" cx="0" cy="0" r="1" gradientUnits="userSpaceOnUse" gradientTransform="translate(53.3949 63.6163) rotate(-97.564) scale(12.2012 3.76029)">
<stop offset="0.017" stop-color="#FFDCC5"/>
<stop offset="1" stop-color="#FFDCC5" stop-opacity="0"/>
</radialGradient>
<linearGradient id="paint25_linear_38_1208" x1="43.3586" y1="63.1648" x2="48.8065" y2="63.6414" gradientUnits="userSpaceOnUse">
<stop stop-color="#DFA791"/>
<stop offset="1" stop-color="#DFA791" stop-opacity="0"/>
</linearGradient>
<linearGradient id="paint26_linear_38_1208" x1="48.4007" y1="68.28" x2="48.7106" y2="64.7373" gradientUnits="userSpaceOnUse">
<stop stop-color="#D29394"/>
<stop offset="1" stop-color="#D29394" stop-opacity="0"/>
</linearGradient>
<radialGradient id="paint27_radial_38_1208" cx="0" cy="0" r="1" gradientUnits="userSpaceOnUse" gradientTransform="translate(51.8991 64.7213) rotate(-175) scale(4.541 1.26953)">
<stop stop-color="#FFD6C2"/>
<stop offset="1" stop-color="#FFD6C2" stop-opacity="0"/>
</radialGradient>
<linearGradient id="paint28_linear_38_1208" x1="48.8685" y1="68.1672" x2="48.9393" y2="67.3578" gradientUnits="userSpaceOnUse">
<stop stop-color="#CC8C8D"/>
<stop offset="1" stop-color="#CC8C8D" stop-opacity="0"/>
</linearGradient>
<radialGradient id="paint29_radial_38_1208" cx="0" cy="0" r="1" gradientUnits="userSpaceOnUse" gradientTransform="translate(51.2268 61.1837) rotate(150.529) scale(9.69061 11.6466)">
<stop offset="0.778" stop-color="#CC8C8D" stop-opacity="0"/>
<stop offset="1" stop-color="#CC8C8D"/>
</radialGradient>
<linearGradient id="paint30_linear_38_1208" x1="41.5085" y1="75.9208" x2="44.5443" y2="72.0206" gradientUnits="userSpaceOnUse">
<stop stop-color="#D9A4A4"/>
<stop offset="0.663" stop-color="#D9A4A4" stop-opacity="0"/>
</linearGradient>
<radialGradient id="paint31_radial_38_1208" cx="0" cy="0" r="1" gradientUnits="userSpaceOnUse" gradientTransform="translate(62.4498 53.5579) rotate(95) scale(4.72697 7.51875)">
<stop offset="0.802" stop-color="#7D574A"/>
<stop offset="1" stop-color="#664944"/>
</radialGradient>
<radialGradient id="paint32_radial_38_1208" cx="0" cy="0" r="1" gradientUnits="userSpaceOnUse" gradientTransform="translate(61.0839 53.9311) rotate(-122.812) scale(2.20403 3.0344)">
<stop offset="0.766" stop-color="#FFE6E2" stop-opacity="0"/>
<stop offset="0.966" stop-color="#FFE6E2"/>
</radialGradient>
<linearGradient id="paint33_linear_38_1208" x1="66.9397" y1="54.2646" x2="65.0202" y2="55.2291" gradientUnits="userSpaceOnUse">
<stop stop-color="#B4948D"/>
<stop offset="1" stop-color="#B4948D" stop-opacity="0"/>
</linearGradient>
<radialGradient id="paint34_radial_38_1208" cx="0" cy="0" r="1" gradientUnits="userSpaceOnUse" gradientTransform="translate(37.1216 51.3421) rotate(95) scale(4.727 7.51881)">
<stop offset="0.802" stop-color="#7D574A"/>
<stop offset="1" stop-color="#664944"/>
</radialGradient>
<linearGradient id="paint35_linear_38_1208" x1="41.4122" y1="52.0307" x2="39.4896" y2="52.9949" gradientUnits="userSpaceOnUse">
<stop stop-color="#B4948D"/>
<stop offset="1" stop-color="#B4948D" stop-opacity="0"/>
</linearGradient>
<radialGradient id="paint36_radial_38_1208" cx="0" cy="0" r="1" gradientUnits="userSpaceOnUse" gradientTransform="translate(36.2289 52.3703) rotate(-113.811) scale(2.87888 3.46053)">
<stop offset="0.766" stop-color="#FFE6E2" stop-opacity="0"/>
<stop offset="0.966" stop-color="#FFE6E2"/>
</radialGradient>
<radialGradient id="paint37_radial_38_1208" cx="0" cy="0" r="1" gradientUnits="userSpaceOnUse" gradientTransform="translate(18.0223 37.2673) rotate(-60.3915) scale(17.6577 9.03322)">
<stop stop-color="#433838"/>
<stop offset="1" stop-color="#433838" stop-opacity="0"/>
</radialGradient>
<radialGradient id="paint38_radial_38_1208" cx="0" cy="0" r="1" gradientUnits="userSpaceOnUse" gradientTransform="translate(64.5975 10.889) rotate(120.684) scale(28.3909 46.4175)">
<stop offset="0.639" stop-color="#1F0D24" stop-opacity="0"/>
<stop offset="1" stop-color="#1F0D24"/>
</radialGradient>
<radialGradient id="paint39_radial_38_1208" cx="0" cy="0" r="1" gradientUnits="userSpaceOnUse" gradientTransform="translate(54.5393 12.171) rotate(103.746) scale(8.0594 17.3394)">
<stop stop-color="#4C4749"/>
<stop offset="1" stop-color="#4C4749" stop-opacity="0"/>
</radialGradient>
<linearGradient id="paint40_linear_38_1208" x1="35.8502" y1="18.4723" x2="38.3631" y2="26.1424" gradientUnits="userSpaceOnUse">
<stop stop-color="#1A1316"/>
<stop offset="1" stop-color="#24182D"/>
</linearGradient>
</defs>
</svg>
