<svg width="32" height="32" viewBox="0 0 32 32" fill="none" xmlns="http://www.w3.org/2000/svg">
<path d="M13.3333 16C13.3333 14.5272 14.5272 13.3333 16 13.3333C17.4728 13.3333 18.6667 14.5272 18.6667 16C18.6667 17.4728 17.4728 18.6667 16 18.6667C14.5272 18.6667 13.3333 17.4728 13.3333 16Z" fill="white"/>
<path d="M16 6.66669C22.6667 6.66669 28 13.3333 28 16C28 18.6667 22.6667 25.3333 16 25.3333C9.33333 25.3333 4 18.6667 4 16C4 13.3333 9.33333 6.66669 16 6.66669ZM16 10.6667C13.0545 10.6667 10.6667 13.0545 10.6667 16C10.6667 18.9455 13.0545 21.3333 16 21.3333C18.9455 21.3333 21.3333 18.9455 21.3333 16C21.3333 13.0545 18.9455 10.6667 16 10.6667Z" fill="white"/>
</svg>
