<svg width="32" height="32" viewBox="0 0 32 32" fill="none" xmlns="http://www.w3.org/2000/svg">
<path d="M28 15.9998C28 23.4455 23.4456 27.9998 16 27.9998C8.55436 27.9998 4 23.4455 4 15.9998C4 8.55418 8.55436 3.99982 16 3.99982C23.4456 3.99982 28 8.55418 28 15.9998ZM12 13.3332C12 12.5968 11.403 11.9998 10.6667 11.9998C9.93034 11.9998 9.33333 12.5968 9.33333 13.3332C9.33333 14.0695 9.93034 14.6665 10.6667 14.6665C11.403 14.6665 12 14.0695 12 13.3332ZM12.9333 19.0477C12.4119 18.5363 11.5747 18.5395 11.0571 19.0571C10.5365 19.5776 10.5365 20.422 11.0571 20.9425C11.2174 21.103 12.8566 22.6665 16 22.6665C19.1434 22.6665 20.7826 21.103 20.9429 20.9425C21.4635 20.422 21.4635 19.5776 20.9429 19.0571C20.4253 18.5395 19.5881 18.5363 19.0667 19.0477C18.8729 19.2257 18.6336 19.3618 18.3999 19.4783C17.8993 19.728 17.1051 19.9998 16 19.9998C14.8949 19.9998 14.1007 19.728 13.6001 19.4783C13.1794 19.2684 12.9549 19.0675 12.9333 19.0477ZM22.6667 13.3332C22.6667 12.5968 22.0697 11.9998 21.3333 11.9998C20.597 11.9998 20 12.5968 20 13.3332C20 14.0695 20.597 14.6665 21.3333 14.6665C22.0697 14.6665 22.6667 14.0695 22.6667 13.3332Z" fill="#001A34" fill-opacity="0.4"/>
</svg>
