<svg width="32" height="32" viewBox="0 0 32 32" fill="none" xmlns="http://www.w3.org/2000/svg">
<path d="M6.11979 13.7618C6.21794 13.3579 6.32641 12.9489 6.44583 12.5429C6.84709 11.1786 7.34241 9.95424 7.91841 9.09896C8.51201 8.21756 8.99529 8 9.33332 8C10.0804 8 10.4045 8.29015 11.0572 8.94281C11.5779 9.46351 12.4221 9.46351 12.9428 8.94281C13.4635 8.42211 13.4635 7.57789 12.9428 7.05719L12.9079 7.02228C12.2277 6.34146 11.2204 5.33333 9.33332 5.33333C7.67136 5.33333 6.48798 6.44911 5.70658 7.60937C4.90759 8.79576 4.31959 10.3214 3.88752 11.7904C3.02546 14.7215 2.66668 17.8494 2.66666 18.6666C2.66665 18.73 2.67108 18.7924 2.67964 18.8535C2.67101 19.0106 2.66666 19.1706 2.66666 19.3333C2.66666 23.0561 4.94386 25.3333 8.66666 25.3333C12.3895 25.3333 14.6667 23.0561 14.6667 19.3333C14.6667 18.2529 14.4749 17.2942 14.1116 16.4777C14.2136 16.3982 14.3144 16.3335 14.4296 16.2759C14.7003 16.1405 15.1512 16 16 16C16.8488 16 17.2997 16.1405 17.5704 16.2759C17.6856 16.3335 17.7864 16.3982 17.8884 16.4777C17.5251 17.2942 17.3333 18.2529 17.3333 19.3333C17.3333 23.0561 19.6105 25.3333 23.3333 25.3333C27.0561 25.3333 29.3333 23.0561 29.3333 19.3333C29.3333 19.1706 29.329 19.0106 29.3203 18.8535C29.3289 18.7925 29.3333 18.7301 29.3333 18.6667C29.3333 17.8494 28.9745 14.7215 28.1125 11.7904C27.6804 10.3214 27.0924 8.79575 26.2934 7.60937C25.512 6.4491 24.3286 5.33333 22.6667 5.33333C20.7796 5.33333 19.7723 6.34146 19.0921 7.02228L19.0572 7.05719C18.5365 7.57789 18.5365 8.42211 19.0572 8.94281C19.5779 9.46351 20.4221 9.46351 20.9428 8.94281C21.5955 8.29015 21.9196 8 22.6667 8C23.0047 8 23.488 8.21756 24.0816 9.09897C24.6576 9.95425 25.1529 11.1786 25.5542 12.5429C25.6736 12.9489 25.7821 13.3579 25.8802 13.7618C25.1339 13.4807 24.2804 13.3333 23.3333 13.3333C21.8205 13.3333 20.5464 13.7094 19.5669 14.4056C19.3399 14.226 19.0747 14.0467 18.7629 13.8908C18.0337 13.5261 17.1512 13.3333 16 13.3333C14.8488 13.3333 13.9663 13.5261 13.237 13.8908C12.9253 14.0467 12.6601 14.226 12.4331 14.4056C11.4535 13.7094 10.1795 13.3333 8.66666 13.3333C7.71958 13.3333 6.86606 13.4807 6.11979 13.7618Z" fill="#001A34" fill-opacity="0.4"/>
</svg>
