<svg width="32" height="32" viewBox="0 0 32 32" fill="none" xmlns="http://www.w3.org/2000/svg">
<path d="M14.6429 21.3305C12.1567 21.3305 10.6359 22.8492 10.6359 25.3319C10.6359 27.8147 12.1568 29.3333 14.643 29.3333C17.1293 29.3333 18.6501 27.8147 18.6501 25.3319C18.6501 23.1196 17.1135 21.0312 16.2024 19.1296C15.9811 18.6675 16.0325 18.5026 16.1949 18.0129C16.5324 16.9956 16.8654 15.9785 17.1986 14.9637C17.3456 14.4739 17.4234 13.9807 17.3144 13.3276C17.2118 12.8662 17.1154 12.4231 17.0229 11.9979C15.9123 6.89308 15.367 4.38636 11.3038 4.01988C10.6289 3.959 10.6409 4.00773 10.7879 4.60297L10.8014 4.65763C11.458 7.32714 12.3608 11.2366 13.1262 14.5989C9.8382 13.8342 5.85077 12.881 3.28962 12.1801L3.21726 12.1602C2.62606 11.9975 2.60131 11.9907 2.72974 12.6606C3.53032 16.8368 6.16552 17.3875 9.9123 18.0129L13.3157 18.5811C13.9316 18.6839 14.0458 18.663 14.1825 19.2722C14.4669 20.5389 14.6429 21.3305 14.6429 21.3305ZM14.643 26.6657C13.9053 26.6657 13.3073 26.0685 13.3073 25.3319C13.3073 24.5953 13.9053 23.9981 14.643 23.9981C15.3807 23.9981 15.9787 24.5953 15.9787 25.3319C15.9787 26.0685 15.3807 26.6657 14.643 26.6657Z" fill="white"/>
<path d="M18.1966 16.2054C18.1966 16.2054 17.9928 16.8258 17.8623 17.2233C17.6436 17.8893 17.6526 17.8468 18.2917 18.0989C20.0629 18.7974 22.0448 19.9966 23.9929 19.9966C26.4792 19.9966 28 18.478 28 15.9952C28 13.5124 26.4792 11.9938 23.9929 11.9938C21.7645 11.9938 20.3116 13.2138 20.0343 15.2546C19.4283 15.5596 19.064 15.7099 18.6574 15.7387C18.2904 15.7648 18.3156 15.8429 18.1966 16.2054ZM23.9929 17.329C23.2552 17.329 22.6572 16.7318 22.6572 15.9952C22.6572 15.2586 23.2552 14.6614 23.9929 14.6614C24.7306 14.6614 25.3286 15.2586 25.3286 15.9952C25.3286 16.7318 24.7306 17.329 23.9929 17.329Z" fill="white"/>
</svg>
