<svg width="32" height="32" viewBox="0 0 32 32" fill="none" xmlns="http://www.w3.org/2000/svg">
<path fill-rule="evenodd" clip-rule="evenodd" d="M27.0853 10.7173C25.2093 9.43066 22.5893 8.10399 19.9027 8.00266C18.828 7.96266 17.9267 8.40932 17.0133 8.86266C16.7582 8.99155 16.5 9.11599 16.2387 9.23599C16.032 9.32799 15.968 9.32799 15.7613 9.23599C15.5011 9.11675 15.2432 8.99228 14.988 8.86266C14.0747 8.40932 13.172 7.96132 12.0973 8.00266C9.41066 8.10399 6.79066 9.43066 4.91466 10.7173C3.68399 11.56 1.33333 12.912 1.33333 14.6667C1.33333 16.6013 3.91599 18.8213 5.21866 19.9307C7.63999 21.9947 11.268 24 16 24C20.732 24 24.36 21.9947 26.7813 19.9333C28.136 18.7773 30.6667 16.6827 30.6667 14.6667C30.6667 12.964 28.2747 11.5333 27.0853 10.7173ZM16 17.3333C20.204 17.3333 24.2427 16.68 28 15.4787C25.9855 14.9377 23.9085 14.6647 21.8227 14.6667C19.8067 14.6667 17.8533 14.9173 16 15.3867C14.0964 14.9068 12.1405 14.6649 10.1773 14.6667C8.03199 14.6667 5.95866 14.9507 3.99999 15.4787C7.87988 16.7143 11.9281 17.34 16 17.3333Z" fill="white"/>
</svg>
