<svg width="32" height="32" viewBox="0 0 32 32" fill="none" xmlns="http://www.w3.org/2000/svg">
<path d="M12.6667 5.33333C12.6667 4.97971 12.5262 4.64057 12.2761 4.39052C12.0261 4.14048 11.687 4 11.3333 4C10.9797 4 10.6406 4.14048 10.3905 4.39052C10.1405 4.64057 10 4.97971 10 5.33333C10 7.76933 9.392 10.2333 8.14133 12.7373C7.53867 13.94 6.69067 14.8707 5.75467 16.1627C4.888 17.3573 4 18.816 4 20.6667C4 21.9043 4.49167 23.0913 5.36684 23.9665C6.24201 24.8417 7.42899 25.3333 8.66667 25.3333C9.42933 25.3333 10.6827 24.832 11.404 25.192C11.9347 25.4587 12.2787 26.072 12.68 26.4987C13.3733 27.232 14.3653 28 16 28C17.6347 28 18.6267 27.232 19.32 26.4987C19.7133 26.0813 20.0693 25.456 20.596 25.192C21.316 24.832 22.5693 25.3333 23.3333 25.3333C24.571 25.3333 25.758 24.8417 26.6332 23.9665C27.5083 23.0913 28 21.9043 28 20.6667C28 18.8173 27.1133 17.3573 26.2453 16.1627C25.3093 14.872 24.4613 13.94 23.8587 12.736C22.608 10.2347 22 7.77067 22 5.33333C22 4.97971 21.8595 4.64057 21.6095 4.39052C21.3594 4.14048 21.0203 4 20.6667 4C20.313 4 19.9739 4.14048 19.7239 4.39052C19.4738 4.64057 19.3333 4.97971 19.3333 5.33333C19.3333 8.23067 20.0587 11.1 21.4747 13.9293C22.2053 15.3933 23.3573 16.7227 24.088 17.7293C24.888 18.8293 25.3333 19.7027 25.3333 20.6667C25.3333 21.1971 25.1226 21.7058 24.7475 22.0809C24.3725 22.456 23.8638 22.6667 23.3333 22.6667C21.9787 22.6667 20.7107 22.1533 19.404 22.808C18.548 23.2347 18.0173 23.992 17.38 24.668C16.972 25.1013 16.6333 25.3333 16 25.3333C15.3667 25.3333 15.0267 25.1013 14.62 24.6693C13.9867 23.996 13.4467 23.232 12.596 22.808C11.2893 22.1547 10.0227 22.6667 8.66667 22.6667C8.40402 22.6667 8.14395 22.6149 7.9013 22.5144C7.65865 22.4139 7.43817 22.2666 7.25245 22.0809C7.06674 21.8952 6.91942 21.6747 6.81891 21.432C6.7184 21.1894 6.66667 20.9293 6.66667 20.6667C6.66667 19.704 7.11333 18.8293 7.912 17.728C8.64267 16.7213 9.79467 15.3933 10.5253 13.9293C11.9413 11.1 12.6667 8.23067 12.6667 5.33333Z" fill="white"/>
</svg>
