<svg width="32" height="32" viewBox="0 0 32 32" fill="none" xmlns="http://www.w3.org/2000/svg">
<path d="M8 20C8 25.3333 8.47587 26.6667 16 26.6667C23.5241 26.6667 24 25.3333 24 20C24 15.8871 23.8189 14.8191 24.269 14.3163C24.5486 14.0041 25.0714 13.9099 26.0322 13.44C28.5402 12.2133 28.5402 12 26.6592 8.66668C26.0322 7.55556 24.7781 5.33334 22.2701 5.33334C19.7621 5.33334 19.4486 6.00001 19.1351 6.66668C18.8215 7.33334 18.508 8.00001 16 8.00001C13.506 8.00001 13.182 7.34081 12.8562 6.67791C12.5267 6.00752 12.1953 5.33334 9.61589 5.33334C7.22185 5.33334 5.96783 7.55556 5.34082 8.66668C3.4598 12 3.45979 12.2133 5.96783 13.44C6.924 13.9077 7.44648 14.0187 7.72696 14.3407C8.18219 14.8631 8 15.941 8 20ZM17.3333 12H18.6667C19.403 12 20 12.597 20 13.3333C20 14.0697 19.403 14.6667 18.6667 14.6667H17.3333C16.597 14.6667 16 14.0697 16 13.3333C16 12.597 16.597 12 17.3333 12Z" fill="white"/>
</svg>
