<svg width="32" height="32" viewBox="0 0 32 32" fill="none" xmlns="http://www.w3.org/2000/svg">
<path d="M14.6667 8C16.0988 8 17.7232 8.38455 19.3333 9.02459C20.017 9.29633 20.3125 9.46875 19.5754 10.1484L18.8619 10.8619C18.6016 11.1223 18.6016 11.5444 18.8619 11.8047C19.1223 12.0651 19.5444 12.0651 19.8047 11.8047L20.9831 10.6263C21.4902 10.1186 21.5526 10.0561 22.2058 10.445C22.8199 10.8105 22.6667 11.0938 22.1982 11.5257L21.5286 12.1953C21.2682 12.4556 21.2682 12.8777 21.5286 13.1381C21.7889 13.3984 22.2111 13.3984 22.4714 13.1381L23.2253 12.3842C23.5964 12.0131 24.1905 11.757 24.9175 12.3842C26.754 13.9684 28 15.7547 28 17.3333V18C28 19.4208 27.3855 20 26 20H10.6667C9.43415 20 9.34336 19.6596 9.13267 18.8696C9.11543 18.805 9.0974 18.7374 9.07787 18.6667C8.81959 17.7317 8.36625 16.9234 7.72141 16.2786C7.07657 15.6338 6.26829 15.1804 5.33333 14.9221C5.23649 14.8954 5.14666 14.8712 5.06333 14.8488C4.07126 14.5823 4.0009 14.5634 4.00092 13.3333C4 10.6591 4.68462 10.6278 6.12576 10.6591C6.29263 10.6628 6.47261 10.6667 6.66671 10.6667C7.42748 10.6667 7.66357 11.1447 7.93584 11.6959C8.30667 12.4467 8.74461 13.3333 10.6667 13.3333C12.864 13.3333 13.0418 11.724 13.2021 10.2733C13.3336 9.08324 13.4533 8 14.6667 8Z" fill="white"/>
<path d="M6.7786 17.2214C7.16309 17.6059 7.46989 18.0876 7.67984 18.6667C8 19.5497 7.90683 20 6.66671 20H6.00001C4.674 20 3.99895 19.3262 4 18C4.00018 17.7707 4.00047 17.5486 4.0009 17.3333C4 16 4.45028 16 5.33333 16.3202C5.91239 16.5301 6.39411 16.8369 6.7786 17.2214Z" fill="white"/>
<path d="M26.6667 21.3333H5.33333C4.66667 21.3333 4.33333 21.3333 4.16667 21.5C4 21.6667 4 22 4 22.6667C4 24 5.33333 24 6.66667 24H25.3333C26.6667 24 28 24 28 22.6667C28 22 28 21.6667 27.8333 21.5C27.6667 21.3333 27.3333 21.3333 26.6667 21.3333Z" fill="white"/>
</svg>
